G04 EAGLE Gerber RS-274X export*
G75*
%MOMM*%
%FSLAX34Y34*%
%LPD*%
%INBottom Copper*%
%IPPOS*%
%AMOC8*
5,1,8,0,0,1.08239X$1,22.5*%
G01*
%ADD10P,1.539592X8X292.500000*%
%ADD11P,1.539592X8X202.500000*%
%ADD12P,1.539592X8X22.500000*%
%ADD13P,1.539592X8X112.500000*%
%ADD14C,1.422400*%
%ADD15C,1.879600*%
%ADD16C,1.509600*%
%ADD17C,0.406400*%
%ADD18C,0.858000*%
%ADD19C,0.609600*%

G36*
X495194Y4068D02*
X495194Y4068D01*
X495213Y4066D01*
X495315Y4088D01*
X495417Y4104D01*
X495434Y4114D01*
X495454Y4118D01*
X495543Y4171D01*
X495634Y4220D01*
X495648Y4234D01*
X495665Y4244D01*
X495732Y4323D01*
X495804Y4398D01*
X495812Y4416D01*
X495825Y4431D01*
X495864Y4527D01*
X495907Y4621D01*
X495909Y4641D01*
X495917Y4659D01*
X495935Y4826D01*
X495935Y495174D01*
X495932Y495194D01*
X495934Y495213D01*
X495912Y495315D01*
X495896Y495417D01*
X495886Y495434D01*
X495882Y495454D01*
X495829Y495543D01*
X495780Y495634D01*
X495766Y495648D01*
X495756Y495665D01*
X495677Y495732D01*
X495602Y495804D01*
X495584Y495812D01*
X495569Y495825D01*
X495473Y495864D01*
X495379Y495907D01*
X495359Y495909D01*
X495341Y495917D01*
X495174Y495935D01*
X4826Y495935D01*
X4806Y495932D01*
X4787Y495934D01*
X4685Y495912D01*
X4583Y495896D01*
X4566Y495886D01*
X4546Y495882D01*
X4457Y495829D01*
X4366Y495780D01*
X4352Y495766D01*
X4335Y495756D01*
X4268Y495677D01*
X4196Y495602D01*
X4188Y495584D01*
X4175Y495569D01*
X4136Y495473D01*
X4093Y495379D01*
X4091Y495359D01*
X4083Y495341D01*
X4065Y495174D01*
X4065Y4826D01*
X4068Y4806D01*
X4066Y4787D01*
X4088Y4685D01*
X4104Y4583D01*
X4114Y4566D01*
X4118Y4546D01*
X4171Y4457D01*
X4220Y4366D01*
X4234Y4352D01*
X4244Y4335D01*
X4323Y4268D01*
X4398Y4196D01*
X4416Y4188D01*
X4431Y4175D01*
X4527Y4136D01*
X4621Y4093D01*
X4641Y4091D01*
X4659Y4083D01*
X4826Y4065D01*
X495174Y4065D01*
X495194Y4068D01*
G37*
%LPC*%
G36*
X289422Y6857D02*
X289422Y6857D01*
X284474Y8907D01*
X280687Y12694D01*
X278637Y17642D01*
X278637Y22998D01*
X280687Y27946D01*
X284474Y31733D01*
X289422Y33783D01*
X293577Y33783D01*
X293648Y33794D01*
X293720Y33796D01*
X293769Y33814D01*
X293820Y33822D01*
X293883Y33856D01*
X293951Y33881D01*
X293991Y33913D01*
X294038Y33938D01*
X294087Y33990D01*
X294143Y34034D01*
X294171Y34078D01*
X294207Y34116D01*
X294237Y34181D01*
X294276Y34241D01*
X294289Y34292D01*
X294311Y34339D01*
X294318Y34410D01*
X294336Y34480D01*
X294332Y34532D01*
X294338Y34583D01*
X294322Y34654D01*
X294317Y34725D01*
X294296Y34773D01*
X294285Y34824D01*
X294249Y34885D01*
X294220Y34951D01*
X294176Y35007D01*
X294159Y35035D01*
X294141Y35050D01*
X294116Y35082D01*
X250654Y78544D01*
X248831Y80366D01*
X247903Y82607D01*
X247903Y251159D01*
X247889Y251249D01*
X247881Y251340D01*
X247869Y251370D01*
X247864Y251402D01*
X247821Y251483D01*
X247785Y251567D01*
X247759Y251599D01*
X247748Y251619D01*
X247725Y251642D01*
X247680Y251698D01*
X238998Y260380D01*
X238924Y260433D01*
X238854Y260493D01*
X238824Y260505D01*
X238798Y260524D01*
X238711Y260551D01*
X238626Y260585D01*
X238585Y260589D01*
X238563Y260596D01*
X238531Y260595D01*
X238459Y260603D01*
X233037Y260603D01*
X232947Y260589D01*
X232856Y260581D01*
X232826Y260569D01*
X232794Y260564D01*
X232713Y260521D01*
X232630Y260485D01*
X232597Y260459D01*
X232577Y260448D01*
X232555Y260425D01*
X232499Y260380D01*
X229343Y257225D01*
X225235Y255523D01*
X206565Y255523D01*
X202457Y257225D01*
X199313Y260369D01*
X197611Y264477D01*
X197611Y268923D01*
X199313Y273031D01*
X202457Y276175D01*
X206565Y277877D01*
X225235Y277877D01*
X229343Y276175D01*
X232499Y273020D01*
X232573Y272967D01*
X232642Y272907D01*
X232672Y272895D01*
X232698Y272876D01*
X232785Y272849D01*
X232870Y272815D01*
X232911Y272811D01*
X232933Y272804D01*
X232966Y272805D01*
X233037Y272797D01*
X242513Y272797D01*
X244754Y271869D01*
X259169Y257454D01*
X260097Y255213D01*
X260097Y222950D01*
X260108Y222879D01*
X260110Y222807D01*
X260128Y222759D01*
X260136Y222707D01*
X260170Y222644D01*
X260195Y222576D01*
X260227Y222536D01*
X260252Y222490D01*
X260303Y222440D01*
X260348Y222384D01*
X260392Y222356D01*
X260430Y222320D01*
X260495Y222290D01*
X260555Y222251D01*
X260606Y222239D01*
X260653Y222217D01*
X260724Y222209D01*
X260794Y222191D01*
X260846Y222195D01*
X260897Y222190D01*
X260968Y222205D01*
X261039Y222211D01*
X261087Y222231D01*
X261138Y222242D01*
X261199Y222279D01*
X261265Y222307D01*
X261321Y222352D01*
X261349Y222368D01*
X261364Y222386D01*
X261396Y222412D01*
X261967Y222983D01*
X265038Y224255D01*
X268362Y224255D01*
X271433Y222983D01*
X273732Y220683D01*
X273770Y220656D01*
X273801Y220622D01*
X273869Y220585D01*
X273932Y220540D01*
X273976Y220526D01*
X274016Y220504D01*
X274093Y220490D01*
X274167Y220467D01*
X274213Y220468D01*
X274258Y220460D01*
X274335Y220472D01*
X274413Y220474D01*
X274456Y220489D01*
X274502Y220496D01*
X274571Y220531D01*
X274644Y220558D01*
X274680Y220587D01*
X274721Y220607D01*
X274775Y220663D01*
X274836Y220712D01*
X274861Y220750D01*
X274893Y220783D01*
X274959Y220903D01*
X274969Y220919D01*
X274970Y220923D01*
X274974Y220930D01*
X275513Y222231D01*
X278657Y225375D01*
X282765Y227077D01*
X301435Y227077D01*
X305543Y225375D01*
X307818Y223101D01*
X307834Y223089D01*
X307846Y223073D01*
X307934Y223017D01*
X308017Y222957D01*
X308036Y222951D01*
X308053Y222940D01*
X308154Y222915D01*
X308253Y222885D01*
X308272Y222885D01*
X308292Y222880D01*
X308395Y222888D01*
X308498Y222891D01*
X308517Y222898D01*
X308537Y222899D01*
X308632Y222940D01*
X308729Y222975D01*
X308745Y222988D01*
X308763Y222996D01*
X308894Y223101D01*
X312870Y227077D01*
X322130Y227077D01*
X328677Y220530D01*
X328677Y211270D01*
X322130Y204723D01*
X312870Y204723D01*
X308894Y208699D01*
X308878Y208711D01*
X308866Y208727D01*
X308778Y208783D01*
X308695Y208843D01*
X308676Y208849D01*
X308659Y208860D01*
X308558Y208885D01*
X308459Y208915D01*
X308440Y208915D01*
X308420Y208920D01*
X308317Y208912D01*
X308214Y208909D01*
X308195Y208902D01*
X308175Y208901D01*
X308080Y208860D01*
X307983Y208825D01*
X307967Y208812D01*
X307949Y208804D01*
X307818Y208699D01*
X305543Y206425D01*
X301435Y204723D01*
X282765Y204723D01*
X278657Y206425D01*
X275513Y209569D01*
X274974Y210870D01*
X274950Y210909D01*
X274934Y210952D01*
X274885Y211013D01*
X274844Y211079D01*
X274809Y211108D01*
X274780Y211144D01*
X274715Y211186D01*
X274655Y211236D01*
X274612Y211252D01*
X274573Y211277D01*
X274498Y211296D01*
X274425Y211324D01*
X274379Y211326D01*
X274335Y211337D01*
X274257Y211331D01*
X274179Y211334D01*
X274135Y211322D01*
X274090Y211318D01*
X274018Y211288D01*
X273943Y211266D01*
X273905Y211240D01*
X273863Y211222D01*
X273757Y211136D01*
X273741Y211126D01*
X273738Y211122D01*
X273732Y211117D01*
X273020Y210404D01*
X272967Y210330D01*
X272907Y210261D01*
X272895Y210231D01*
X272876Y210205D01*
X272849Y210117D01*
X272815Y210033D01*
X272811Y209992D01*
X272804Y209969D01*
X272805Y209937D01*
X272797Y209866D01*
X272797Y168701D01*
X272812Y168605D01*
X272822Y168508D01*
X272832Y168484D01*
X272836Y168458D01*
X272882Y168372D01*
X272922Y168283D01*
X272939Y168264D01*
X272952Y168241D01*
X273022Y168174D01*
X273088Y168102D01*
X273111Y168089D01*
X273130Y168071D01*
X273218Y168030D01*
X273304Y167983D01*
X273329Y167979D01*
X273353Y167968D01*
X273450Y167957D01*
X273546Y167940D01*
X273572Y167944D01*
X273597Y167941D01*
X273693Y167961D01*
X273789Y167976D01*
X273812Y167987D01*
X273838Y167993D01*
X273921Y168043D01*
X274008Y168087D01*
X274027Y168106D01*
X274049Y168119D01*
X274112Y168193D01*
X274180Y168263D01*
X274196Y168291D01*
X274209Y168306D01*
X274221Y168337D01*
X274261Y168410D01*
X275513Y171431D01*
X278657Y174575D01*
X282765Y176277D01*
X301435Y176277D01*
X305543Y174575D01*
X308687Y171431D01*
X310389Y167323D01*
X310389Y162877D01*
X308687Y158769D01*
X305543Y155625D01*
X301435Y153923D01*
X282765Y153923D01*
X278657Y155625D01*
X275513Y158769D01*
X274261Y161790D01*
X274210Y161873D01*
X274164Y161959D01*
X274146Y161977D01*
X274132Y161999D01*
X274056Y162062D01*
X273986Y162129D01*
X273962Y162140D01*
X273942Y162156D01*
X273851Y162191D01*
X273763Y162232D01*
X273737Y162235D01*
X273713Y162244D01*
X273615Y162249D01*
X273519Y162259D01*
X273493Y162254D01*
X273467Y162255D01*
X273373Y162228D01*
X273278Y162207D01*
X273256Y162194D01*
X273231Y162186D01*
X273151Y162131D01*
X273067Y162081D01*
X273050Y162061D01*
X273029Y162046D01*
X272970Y161968D01*
X272907Y161894D01*
X272897Y161870D01*
X272882Y161849D01*
X272852Y161756D01*
X272815Y161666D01*
X272812Y161633D01*
X272806Y161615D01*
X272806Y161582D01*
X272797Y161499D01*
X272797Y143301D01*
X272812Y143205D01*
X272822Y143108D01*
X272832Y143084D01*
X272836Y143058D01*
X272882Y142972D01*
X272922Y142883D01*
X272939Y142864D01*
X272952Y142841D01*
X273022Y142774D01*
X273088Y142702D01*
X273111Y142689D01*
X273130Y142671D01*
X273218Y142630D01*
X273304Y142583D01*
X273329Y142579D01*
X273353Y142568D01*
X273450Y142557D01*
X273546Y142540D01*
X273572Y142544D01*
X273597Y142541D01*
X273693Y142561D01*
X273789Y142576D01*
X273812Y142587D01*
X273838Y142593D01*
X273921Y142643D01*
X274008Y142687D01*
X274027Y142706D01*
X274049Y142719D01*
X274112Y142793D01*
X274180Y142863D01*
X274196Y142891D01*
X274209Y142906D01*
X274221Y142937D01*
X274261Y143010D01*
X275513Y146031D01*
X278657Y149175D01*
X282765Y150877D01*
X301435Y150877D01*
X305543Y149175D01*
X308687Y146031D01*
X310389Y141923D01*
X310389Y137477D01*
X308687Y133369D01*
X305543Y130225D01*
X301435Y128523D01*
X282765Y128523D01*
X278657Y130225D01*
X275513Y133369D01*
X274261Y136390D01*
X274210Y136473D01*
X274164Y136559D01*
X274146Y136577D01*
X274132Y136599D01*
X274056Y136662D01*
X273986Y136729D01*
X273962Y136740D01*
X273942Y136756D01*
X273851Y136791D01*
X273763Y136832D01*
X273737Y136835D01*
X273713Y136844D01*
X273615Y136849D01*
X273519Y136859D01*
X273493Y136854D01*
X273467Y136855D01*
X273373Y136828D01*
X273278Y136807D01*
X273256Y136794D01*
X273231Y136786D01*
X273151Y136731D01*
X273067Y136681D01*
X273050Y136661D01*
X273029Y136646D01*
X272970Y136568D01*
X272907Y136494D01*
X272897Y136470D01*
X272882Y136449D01*
X272852Y136356D01*
X272815Y136266D01*
X272812Y136233D01*
X272806Y136215D01*
X272806Y136182D01*
X272797Y136099D01*
X272797Y117901D01*
X272812Y117805D01*
X272822Y117708D01*
X272832Y117684D01*
X272836Y117658D01*
X272882Y117572D01*
X272922Y117483D01*
X272939Y117464D01*
X272952Y117441D01*
X273022Y117374D01*
X273088Y117302D01*
X273111Y117289D01*
X273130Y117271D01*
X273218Y117230D01*
X273304Y117183D01*
X273329Y117179D01*
X273353Y117168D01*
X273450Y117157D01*
X273546Y117140D01*
X273572Y117144D01*
X273597Y117141D01*
X273693Y117161D01*
X273789Y117176D01*
X273812Y117187D01*
X273838Y117193D01*
X273921Y117243D01*
X274008Y117287D01*
X274027Y117306D01*
X274049Y117319D01*
X274112Y117393D01*
X274180Y117463D01*
X274196Y117491D01*
X274209Y117506D01*
X274221Y117537D01*
X274261Y117610D01*
X275513Y120631D01*
X278657Y123775D01*
X282765Y125477D01*
X301435Y125477D01*
X305543Y123775D01*
X308687Y120631D01*
X310389Y116523D01*
X310389Y112077D01*
X308687Y107969D01*
X308408Y107690D01*
X308397Y107674D01*
X308381Y107662D01*
X308325Y107574D01*
X308265Y107490D01*
X308259Y107471D01*
X308248Y107455D01*
X308223Y107354D01*
X308193Y107255D01*
X308193Y107235D01*
X308188Y107216D01*
X308196Y107113D01*
X308199Y107009D01*
X308206Y106991D01*
X308207Y106971D01*
X308248Y106876D01*
X308283Y106778D01*
X308296Y106763D01*
X308304Y106745D01*
X308408Y106614D01*
X320846Y94176D01*
X321788Y93234D01*
X321846Y93192D01*
X321898Y93143D01*
X321945Y93121D01*
X321987Y93091D01*
X322056Y93070D01*
X322121Y93039D01*
X322173Y93034D01*
X322223Y93018D01*
X322294Y93020D01*
X322365Y93012D01*
X322416Y93023D01*
X322468Y93025D01*
X322536Y93049D01*
X322606Y93065D01*
X322651Y93091D01*
X322699Y93109D01*
X322755Y93154D01*
X322817Y93191D01*
X322851Y93230D01*
X322891Y93263D01*
X322930Y93323D01*
X322977Y93378D01*
X322996Y93426D01*
X323024Y93470D01*
X323042Y93539D01*
X323069Y93606D01*
X323077Y93677D01*
X323085Y93708D01*
X323083Y93732D01*
X323087Y93773D01*
X323087Y179215D01*
X324170Y181829D01*
X334468Y192127D01*
X334506Y192180D01*
X334552Y192227D01*
X334592Y192300D01*
X334612Y192327D01*
X334617Y192345D01*
X334633Y192374D01*
X335817Y195233D01*
X338167Y197583D01*
X341238Y198855D01*
X344562Y198855D01*
X347633Y197583D01*
X349983Y195233D01*
X351255Y192162D01*
X351255Y188838D01*
X349983Y185767D01*
X347633Y183417D01*
X344774Y182233D01*
X344718Y182199D01*
X344658Y182173D01*
X344593Y182121D01*
X344565Y182104D01*
X344553Y182089D01*
X344527Y182068D01*
X337536Y175077D01*
X337483Y175003D01*
X337423Y174933D01*
X337411Y174903D01*
X337392Y174877D01*
X337365Y174790D01*
X337331Y174705D01*
X337327Y174664D01*
X337320Y174642D01*
X337321Y174610D01*
X337313Y174538D01*
X337313Y73392D01*
X337323Y73327D01*
X337324Y73262D01*
X337347Y73182D01*
X337352Y73149D01*
X337362Y73132D01*
X337371Y73100D01*
X338555Y70242D01*
X338555Y66918D01*
X337283Y63847D01*
X334933Y61497D01*
X331862Y60225D01*
X328538Y60225D01*
X325467Y61497D01*
X324896Y62068D01*
X324838Y62110D01*
X324786Y62160D01*
X324739Y62182D01*
X324697Y62212D01*
X324628Y62233D01*
X324563Y62263D01*
X324511Y62269D01*
X324461Y62284D01*
X324390Y62282D01*
X324319Y62290D01*
X324268Y62279D01*
X324216Y62278D01*
X324148Y62253D01*
X324078Y62238D01*
X324033Y62211D01*
X323985Y62193D01*
X323929Y62149D01*
X323867Y62112D01*
X323833Y62072D01*
X323793Y62040D01*
X323754Y61979D01*
X323707Y61925D01*
X323688Y61877D01*
X323660Y61833D01*
X323642Y61763D01*
X323615Y61697D01*
X323607Y61626D01*
X323599Y61594D01*
X323601Y61571D01*
X323597Y61530D01*
X323597Y48561D01*
X323611Y48471D01*
X323619Y48380D01*
X323631Y48350D01*
X323636Y48318D01*
X323679Y48237D01*
X323715Y48153D01*
X323741Y48121D01*
X323752Y48101D01*
X323775Y48078D01*
X323820Y48022D01*
X338333Y33509D01*
X338428Y33441D01*
X338522Y33371D01*
X338528Y33369D01*
X338533Y33365D01*
X338644Y33331D01*
X338756Y33295D01*
X338762Y33295D01*
X338768Y33293D01*
X338885Y33296D01*
X339002Y33297D01*
X339009Y33299D01*
X339014Y33299D01*
X339031Y33306D01*
X339163Y33344D01*
X340222Y33783D01*
X345578Y33783D01*
X350526Y31733D01*
X354313Y27946D01*
X354897Y26537D01*
X354934Y26476D01*
X354964Y26411D01*
X354999Y26372D01*
X355026Y26328D01*
X355082Y26282D01*
X355130Y26230D01*
X355176Y26205D01*
X355216Y26171D01*
X355283Y26146D01*
X355346Y26111D01*
X355397Y26102D01*
X355445Y26083D01*
X355517Y26080D01*
X355588Y26067D01*
X355639Y26075D01*
X355691Y26073D01*
X355760Y26093D01*
X355831Y26103D01*
X355877Y26127D01*
X355927Y26141D01*
X355986Y26182D01*
X356050Y26215D01*
X356087Y26252D01*
X356129Y26282D01*
X356172Y26339D01*
X356222Y26390D01*
X356257Y26453D01*
X356276Y26479D01*
X356283Y26501D01*
X356303Y26537D01*
X356887Y27946D01*
X360674Y31733D01*
X365622Y33783D01*
X370978Y33783D01*
X375926Y31733D01*
X379713Y27946D01*
X380297Y26537D01*
X380334Y26476D01*
X380364Y26411D01*
X380399Y26372D01*
X380426Y26328D01*
X380482Y26282D01*
X380530Y26230D01*
X380576Y26205D01*
X380616Y26171D01*
X380683Y26146D01*
X380746Y26111D01*
X380797Y26102D01*
X380845Y26083D01*
X380917Y26080D01*
X380988Y26067D01*
X381039Y26075D01*
X381091Y26073D01*
X381160Y26093D01*
X381231Y26103D01*
X381277Y26127D01*
X381327Y26141D01*
X381386Y26182D01*
X381450Y26215D01*
X381487Y26252D01*
X381529Y26282D01*
X381572Y26339D01*
X381622Y26390D01*
X381657Y26453D01*
X381676Y26479D01*
X381683Y26501D01*
X381703Y26537D01*
X382287Y27946D01*
X386074Y31733D01*
X391022Y33783D01*
X396378Y33783D01*
X401326Y31733D01*
X405113Y27946D01*
X406516Y24560D01*
X406569Y24474D01*
X406617Y24385D01*
X406634Y24370D01*
X406645Y24351D01*
X406723Y24287D01*
X406797Y24218D01*
X406818Y24209D01*
X406835Y24194D01*
X406929Y24158D01*
X407022Y24116D01*
X407044Y24114D01*
X407064Y24106D01*
X407165Y24102D01*
X407266Y24092D01*
X407288Y24097D01*
X407310Y24096D01*
X407407Y24124D01*
X407506Y24147D01*
X407525Y24158D01*
X407546Y24164D01*
X407629Y24222D01*
X407716Y24275D01*
X407730Y24292D01*
X407748Y24305D01*
X407809Y24386D01*
X407874Y24464D01*
X407885Y24488D01*
X407895Y24502D01*
X407905Y24533D01*
X407943Y24616D01*
X408036Y24903D01*
X408889Y26577D01*
X409994Y28098D01*
X411322Y29426D01*
X412843Y30531D01*
X414517Y31384D01*
X416304Y31965D01*
X417577Y32166D01*
X417577Y21082D01*
X417580Y21062D01*
X417578Y21043D01*
X417600Y20941D01*
X417617Y20839D01*
X417626Y20822D01*
X417630Y20802D01*
X417683Y20713D01*
X417732Y20622D01*
X417746Y20608D01*
X417756Y20591D01*
X417835Y20524D01*
X417910Y20453D01*
X417928Y20444D01*
X417943Y20431D01*
X418039Y20393D01*
X418133Y20349D01*
X418153Y20347D01*
X418171Y20339D01*
X418338Y20321D01*
X419101Y20321D01*
X419101Y20319D01*
X418338Y20319D01*
X418318Y20316D01*
X418299Y20318D01*
X418197Y20296D01*
X418095Y20279D01*
X418078Y20270D01*
X418058Y20266D01*
X417969Y20213D01*
X417878Y20164D01*
X417864Y20150D01*
X417847Y20140D01*
X417780Y20061D01*
X417709Y19986D01*
X417700Y19968D01*
X417687Y19953D01*
X417648Y19857D01*
X417605Y19763D01*
X417603Y19743D01*
X417595Y19725D01*
X417577Y19558D01*
X417577Y8474D01*
X416304Y8675D01*
X414517Y9256D01*
X412843Y10109D01*
X411322Y11214D01*
X409994Y12542D01*
X408889Y14063D01*
X408036Y15737D01*
X407943Y16024D01*
X407896Y16114D01*
X407855Y16206D01*
X407840Y16222D01*
X407830Y16242D01*
X407757Y16313D01*
X407689Y16387D01*
X407669Y16398D01*
X407653Y16413D01*
X407562Y16457D01*
X407473Y16506D01*
X407451Y16510D01*
X407431Y16519D01*
X407331Y16532D01*
X407231Y16550D01*
X407209Y16546D01*
X407187Y16549D01*
X407088Y16529D01*
X406988Y16514D01*
X406968Y16504D01*
X406946Y16499D01*
X406859Y16448D01*
X406769Y16402D01*
X406753Y16386D01*
X406734Y16375D01*
X406667Y16299D01*
X406596Y16227D01*
X406583Y16203D01*
X406572Y16190D01*
X406560Y16160D01*
X406516Y16080D01*
X405113Y12694D01*
X401326Y8907D01*
X396378Y6857D01*
X391022Y6857D01*
X386074Y8907D01*
X382287Y12694D01*
X381703Y14103D01*
X381665Y14164D01*
X381636Y14229D01*
X381601Y14268D01*
X381574Y14312D01*
X381518Y14358D01*
X381470Y14410D01*
X381424Y14435D01*
X381384Y14469D01*
X381317Y14494D01*
X381254Y14529D01*
X381203Y14538D01*
X381155Y14557D01*
X381083Y14560D01*
X381012Y14573D01*
X380961Y14565D01*
X380909Y14567D01*
X380840Y14547D01*
X380769Y14537D01*
X380723Y14513D01*
X380673Y14499D01*
X380614Y14458D01*
X380550Y14425D01*
X380513Y14388D01*
X380471Y14358D01*
X380428Y14301D01*
X380378Y14250D01*
X380343Y14187D01*
X380324Y14161D01*
X380317Y14139D01*
X380297Y14103D01*
X379713Y12694D01*
X375926Y8907D01*
X370978Y6857D01*
X365622Y6857D01*
X360674Y8907D01*
X356887Y12694D01*
X356303Y14103D01*
X356265Y14164D01*
X356236Y14229D01*
X356201Y14268D01*
X356174Y14312D01*
X356118Y14358D01*
X356070Y14410D01*
X356024Y14435D01*
X355984Y14469D01*
X355917Y14494D01*
X355854Y14529D01*
X355803Y14538D01*
X355755Y14557D01*
X355683Y14560D01*
X355612Y14573D01*
X355561Y14565D01*
X355509Y14567D01*
X355440Y14547D01*
X355369Y14537D01*
X355323Y14513D01*
X355273Y14499D01*
X355214Y14458D01*
X355150Y14425D01*
X355113Y14388D01*
X355071Y14358D01*
X355028Y14301D01*
X354978Y14250D01*
X354943Y14187D01*
X354924Y14161D01*
X354917Y14139D01*
X354897Y14103D01*
X354313Y12694D01*
X350526Y8907D01*
X345578Y6857D01*
X340222Y6857D01*
X335274Y8907D01*
X331487Y12694D01*
X330903Y14103D01*
X330865Y14164D01*
X330836Y14229D01*
X330801Y14268D01*
X330774Y14312D01*
X330718Y14358D01*
X330670Y14410D01*
X330624Y14435D01*
X330584Y14469D01*
X330517Y14494D01*
X330454Y14529D01*
X330403Y14538D01*
X330355Y14557D01*
X330283Y14560D01*
X330212Y14573D01*
X330161Y14565D01*
X330109Y14567D01*
X330040Y14547D01*
X329969Y14537D01*
X329923Y14513D01*
X329873Y14499D01*
X329814Y14458D01*
X329750Y14425D01*
X329713Y14388D01*
X329671Y14358D01*
X329628Y14301D01*
X329578Y14250D01*
X329543Y14187D01*
X329524Y14161D01*
X329517Y14139D01*
X329497Y14103D01*
X328913Y12694D01*
X325126Y8907D01*
X320178Y6857D01*
X314822Y6857D01*
X309874Y8907D01*
X306087Y12694D01*
X305503Y14103D01*
X305465Y14164D01*
X305436Y14229D01*
X305401Y14268D01*
X305374Y14312D01*
X305318Y14358D01*
X305270Y14410D01*
X305224Y14435D01*
X305184Y14469D01*
X305117Y14494D01*
X305054Y14529D01*
X305003Y14538D01*
X304955Y14557D01*
X304883Y14560D01*
X304812Y14573D01*
X304761Y14565D01*
X304709Y14567D01*
X304640Y14547D01*
X304569Y14537D01*
X304523Y14513D01*
X304473Y14499D01*
X304414Y14458D01*
X304350Y14425D01*
X304313Y14388D01*
X304271Y14358D01*
X304228Y14301D01*
X304178Y14250D01*
X304143Y14187D01*
X304124Y14161D01*
X304117Y14139D01*
X304097Y14103D01*
X303513Y12694D01*
X299726Y8907D01*
X294778Y6857D01*
X289422Y6857D01*
G37*
%LPD*%
%LPC*%
G36*
X206565Y306323D02*
X206565Y306323D01*
X202457Y308025D01*
X199313Y311169D01*
X197611Y315277D01*
X197611Y319723D01*
X199313Y323831D01*
X202457Y326975D01*
X206565Y328677D01*
X225235Y328677D01*
X228951Y327138D01*
X229064Y327111D01*
X229178Y327082D01*
X229184Y327083D01*
X229190Y327081D01*
X229307Y327092D01*
X229423Y327102D01*
X229429Y327104D01*
X229435Y327105D01*
X229543Y327152D01*
X229650Y327198D01*
X229655Y327202D01*
X229660Y327205D01*
X229674Y327217D01*
X229781Y327303D01*
X260380Y357902D01*
X260433Y357976D01*
X260493Y358046D01*
X260505Y358076D01*
X260524Y358102D01*
X260551Y358189D01*
X260585Y358274D01*
X260589Y358315D01*
X260596Y358337D01*
X260595Y358369D01*
X260603Y358441D01*
X260603Y433013D01*
X261531Y435254D01*
X263354Y437076D01*
X286066Y459788D01*
X286123Y459867D01*
X286185Y459942D01*
X286194Y459966D01*
X286209Y459988D01*
X286238Y460081D01*
X286273Y460172D01*
X286274Y460198D01*
X286282Y460223D01*
X286279Y460320D01*
X286283Y460417D01*
X286276Y460442D01*
X286275Y460469D01*
X286242Y460560D01*
X286215Y460653D01*
X286200Y460675D01*
X286191Y460700D01*
X286130Y460776D01*
X286074Y460856D01*
X286053Y460871D01*
X286037Y460892D01*
X285955Y460944D01*
X285877Y461002D01*
X285852Y461010D01*
X285830Y461025D01*
X285736Y461048D01*
X285643Y461079D01*
X285617Y461078D01*
X285592Y461085D01*
X285495Y461077D01*
X285397Y461076D01*
X285366Y461067D01*
X285346Y461066D01*
X285316Y461053D01*
X285236Y461029D01*
X283348Y460247D01*
X278685Y460247D01*
X278595Y460233D01*
X278504Y460225D01*
X278474Y460213D01*
X278442Y460208D01*
X278361Y460165D01*
X278277Y460129D01*
X278245Y460103D01*
X278225Y460092D01*
X278202Y460069D01*
X278146Y460024D01*
X247620Y429498D01*
X247567Y429424D01*
X247507Y429354D01*
X247495Y429324D01*
X247476Y429298D01*
X247449Y429211D01*
X247415Y429126D01*
X247411Y429085D01*
X247404Y429063D01*
X247405Y429031D01*
X247397Y428959D01*
X247397Y354387D01*
X246469Y352146D01*
X233723Y339401D01*
X233685Y339348D01*
X233639Y339301D01*
X233599Y339228D01*
X233579Y339201D01*
X233574Y339183D01*
X233558Y339154D01*
X232487Y336569D01*
X229343Y333425D01*
X225235Y331723D01*
X206565Y331723D01*
X202457Y333425D01*
X199313Y336569D01*
X197611Y340677D01*
X197611Y345123D01*
X199313Y349231D01*
X202457Y352375D01*
X206565Y354077D01*
X225235Y354077D01*
X228951Y352538D01*
X229064Y352511D01*
X229178Y352482D01*
X229184Y352483D01*
X229190Y352481D01*
X229307Y352492D01*
X229423Y352502D01*
X229429Y352504D01*
X229435Y352505D01*
X229542Y352552D01*
X229650Y352598D01*
X229655Y352602D01*
X229660Y352605D01*
X229674Y352617D01*
X229781Y352703D01*
X234980Y357902D01*
X235033Y357976D01*
X235093Y358046D01*
X235105Y358076D01*
X235124Y358102D01*
X235151Y358189D01*
X235185Y358274D01*
X235189Y358315D01*
X235196Y358337D01*
X235195Y358369D01*
X235203Y358441D01*
X235203Y364699D01*
X235188Y364795D01*
X235178Y364892D01*
X235168Y364916D01*
X235164Y364942D01*
X235118Y365028D01*
X235078Y365117D01*
X235061Y365136D01*
X235048Y365159D01*
X234978Y365226D01*
X234912Y365298D01*
X234889Y365311D01*
X234870Y365329D01*
X234782Y365370D01*
X234696Y365417D01*
X234671Y365421D01*
X234647Y365432D01*
X234550Y365443D01*
X234454Y365460D01*
X234428Y365456D01*
X234403Y365459D01*
X234307Y365439D01*
X234211Y365424D01*
X234188Y365413D01*
X234162Y365407D01*
X234079Y365357D01*
X233992Y365313D01*
X233973Y365294D01*
X233951Y365281D01*
X233888Y365207D01*
X233820Y365137D01*
X233804Y365109D01*
X233791Y365094D01*
X233779Y365063D01*
X233739Y364990D01*
X232487Y361969D01*
X229343Y358825D01*
X225235Y357123D01*
X206565Y357123D01*
X202457Y358825D01*
X199313Y361969D01*
X197611Y366077D01*
X197611Y370523D01*
X199313Y374631D01*
X202457Y377775D01*
X206565Y379477D01*
X225235Y379477D01*
X229343Y377775D01*
X232487Y374631D01*
X233739Y371610D01*
X233790Y371527D01*
X233836Y371441D01*
X233854Y371423D01*
X233868Y371401D01*
X233944Y371338D01*
X234014Y371271D01*
X234038Y371260D01*
X234058Y371244D01*
X234149Y371209D01*
X234237Y371168D01*
X234263Y371165D01*
X234287Y371156D01*
X234385Y371151D01*
X234481Y371141D01*
X234507Y371146D01*
X234533Y371145D01*
X234627Y371172D01*
X234722Y371193D01*
X234744Y371206D01*
X234769Y371214D01*
X234849Y371269D01*
X234933Y371319D01*
X234950Y371339D01*
X234971Y371354D01*
X235030Y371432D01*
X235093Y371506D01*
X235103Y371530D01*
X235118Y371551D01*
X235148Y371644D01*
X235185Y371734D01*
X235188Y371767D01*
X235194Y371785D01*
X235194Y371818D01*
X235203Y371901D01*
X235203Y390099D01*
X235188Y390195D01*
X235178Y390292D01*
X235168Y390316D01*
X235164Y390342D01*
X235118Y390428D01*
X235078Y390517D01*
X235061Y390536D01*
X235048Y390559D01*
X234978Y390626D01*
X234912Y390698D01*
X234889Y390711D01*
X234870Y390729D01*
X234782Y390770D01*
X234696Y390817D01*
X234671Y390821D01*
X234647Y390832D01*
X234550Y390843D01*
X234454Y390860D01*
X234428Y390856D01*
X234403Y390859D01*
X234307Y390839D01*
X234211Y390824D01*
X234188Y390813D01*
X234162Y390807D01*
X234079Y390757D01*
X233992Y390713D01*
X233973Y390694D01*
X233951Y390681D01*
X233888Y390607D01*
X233820Y390537D01*
X233804Y390509D01*
X233791Y390494D01*
X233779Y390463D01*
X233739Y390390D01*
X232487Y387369D01*
X229343Y384225D01*
X225235Y382523D01*
X206565Y382523D01*
X202457Y384225D01*
X199313Y387369D01*
X197611Y391477D01*
X197611Y395923D01*
X199313Y400031D01*
X202457Y403175D01*
X206565Y404877D01*
X225235Y404877D01*
X229343Y403175D01*
X232487Y400031D01*
X233739Y397010D01*
X233790Y396927D01*
X233836Y396841D01*
X233854Y396823D01*
X233868Y396801D01*
X233944Y396738D01*
X234014Y396671D01*
X234038Y396660D01*
X234058Y396644D01*
X234149Y396609D01*
X234237Y396568D01*
X234263Y396565D01*
X234287Y396556D01*
X234385Y396551D01*
X234481Y396541D01*
X234507Y396546D01*
X234533Y396545D01*
X234627Y396572D01*
X234722Y396593D01*
X234744Y396606D01*
X234769Y396614D01*
X234849Y396669D01*
X234933Y396719D01*
X234950Y396739D01*
X234971Y396754D01*
X235030Y396832D01*
X235093Y396906D01*
X235103Y396930D01*
X235118Y396951D01*
X235148Y397044D01*
X235185Y397134D01*
X235188Y397167D01*
X235194Y397185D01*
X235194Y397218D01*
X235203Y397301D01*
X235203Y415499D01*
X235188Y415595D01*
X235178Y415692D01*
X235168Y415716D01*
X235164Y415742D01*
X235118Y415828D01*
X235078Y415917D01*
X235061Y415936D01*
X235048Y415959D01*
X234978Y416026D01*
X234912Y416098D01*
X234889Y416111D01*
X234870Y416129D01*
X234782Y416170D01*
X234696Y416217D01*
X234671Y416221D01*
X234647Y416232D01*
X234550Y416243D01*
X234454Y416260D01*
X234428Y416256D01*
X234403Y416259D01*
X234307Y416239D01*
X234211Y416224D01*
X234188Y416213D01*
X234162Y416207D01*
X234079Y416157D01*
X233992Y416113D01*
X233973Y416094D01*
X233951Y416081D01*
X233888Y416007D01*
X233820Y415937D01*
X233804Y415909D01*
X233791Y415894D01*
X233779Y415863D01*
X233739Y415790D01*
X232487Y412769D01*
X229343Y409625D01*
X225235Y407923D01*
X206565Y407923D01*
X202457Y409625D01*
X199313Y412769D01*
X197611Y416877D01*
X197611Y421323D01*
X199313Y425431D01*
X199592Y425710D01*
X199603Y425726D01*
X199619Y425738D01*
X199675Y425826D01*
X199735Y425910D01*
X199741Y425929D01*
X199752Y425945D01*
X199777Y426046D01*
X199807Y426145D01*
X199807Y426165D01*
X199812Y426184D01*
X199804Y426287D01*
X199801Y426391D01*
X199794Y426409D01*
X199793Y426429D01*
X199752Y426524D01*
X199717Y426622D01*
X199704Y426637D01*
X199696Y426655D01*
X199592Y426786D01*
X199301Y427076D01*
X198373Y429317D01*
X198373Y461155D01*
X198354Y461269D01*
X198337Y461386D01*
X198335Y461391D01*
X198334Y461398D01*
X198279Y461500D01*
X198226Y461605D01*
X198221Y461609D01*
X198218Y461615D01*
X198134Y461695D01*
X198050Y461777D01*
X198044Y461781D01*
X198040Y461784D01*
X198023Y461792D01*
X197903Y461858D01*
X196844Y462297D01*
X193057Y466084D01*
X191007Y471032D01*
X191007Y476388D01*
X193057Y481336D01*
X196844Y485123D01*
X201792Y487173D01*
X207148Y487173D01*
X212096Y485123D01*
X215883Y481336D01*
X216467Y479927D01*
X216505Y479866D01*
X216534Y479801D01*
X216569Y479762D01*
X216596Y479718D01*
X216652Y479672D01*
X216700Y479620D01*
X216746Y479595D01*
X216786Y479561D01*
X216853Y479536D01*
X216916Y479501D01*
X216967Y479492D01*
X217015Y479473D01*
X217087Y479470D01*
X217158Y479457D01*
X217209Y479465D01*
X217261Y479463D01*
X217330Y479483D01*
X217401Y479493D01*
X217447Y479517D01*
X217497Y479531D01*
X217556Y479572D01*
X217620Y479605D01*
X217657Y479642D01*
X217699Y479672D01*
X217742Y479729D01*
X217792Y479780D01*
X217827Y479843D01*
X217846Y479869D01*
X217853Y479891D01*
X217873Y479927D01*
X218457Y481336D01*
X222244Y485123D01*
X227192Y487173D01*
X232548Y487173D01*
X237496Y485123D01*
X241283Y481336D01*
X242686Y477950D01*
X242739Y477864D01*
X242787Y477775D01*
X242804Y477760D01*
X242815Y477741D01*
X242893Y477677D01*
X242967Y477608D01*
X242988Y477599D01*
X243005Y477584D01*
X243099Y477548D01*
X243192Y477506D01*
X243214Y477504D01*
X243234Y477496D01*
X243335Y477492D01*
X243436Y477482D01*
X243458Y477487D01*
X243480Y477486D01*
X243577Y477514D01*
X243676Y477537D01*
X243695Y477548D01*
X243716Y477554D01*
X243799Y477612D01*
X243886Y477665D01*
X243900Y477682D01*
X243918Y477695D01*
X243979Y477776D01*
X244044Y477854D01*
X244055Y477878D01*
X244065Y477892D01*
X244075Y477923D01*
X244113Y478006D01*
X244206Y478293D01*
X245059Y479967D01*
X246164Y481488D01*
X247492Y482816D01*
X249013Y483921D01*
X250687Y484774D01*
X252474Y485355D01*
X253747Y485556D01*
X253747Y474472D01*
X253750Y474452D01*
X253748Y474433D01*
X253770Y474331D01*
X253787Y474229D01*
X253796Y474212D01*
X253800Y474192D01*
X253853Y474103D01*
X253902Y474012D01*
X253916Y473998D01*
X253926Y473981D01*
X254005Y473914D01*
X254080Y473843D01*
X254098Y473834D01*
X254113Y473821D01*
X254209Y473783D01*
X254303Y473739D01*
X254323Y473737D01*
X254341Y473729D01*
X254508Y473711D01*
X256032Y473711D01*
X256052Y473714D01*
X256071Y473712D01*
X256173Y473734D01*
X256275Y473751D01*
X256292Y473760D01*
X256312Y473764D01*
X256401Y473817D01*
X256492Y473866D01*
X256506Y473880D01*
X256523Y473890D01*
X256590Y473969D01*
X256661Y474044D01*
X256670Y474062D01*
X256683Y474077D01*
X256722Y474173D01*
X256765Y474267D01*
X256767Y474287D01*
X256775Y474305D01*
X256793Y474472D01*
X256793Y485556D01*
X258066Y485355D01*
X259853Y484774D01*
X261527Y483921D01*
X263048Y482816D01*
X264376Y481488D01*
X265481Y479967D01*
X266334Y478293D01*
X266427Y478006D01*
X266474Y477916D01*
X266515Y477824D01*
X266530Y477808D01*
X266540Y477788D01*
X266613Y477717D01*
X266681Y477643D01*
X266701Y477632D01*
X266717Y477617D01*
X266808Y477573D01*
X266897Y477524D01*
X266919Y477520D01*
X266939Y477511D01*
X267039Y477498D01*
X267139Y477480D01*
X267161Y477484D01*
X267183Y477481D01*
X267282Y477501D01*
X267382Y477516D01*
X267402Y477526D01*
X267424Y477531D01*
X267511Y477582D01*
X267601Y477628D01*
X267617Y477644D01*
X267636Y477655D01*
X267703Y477731D01*
X267774Y477803D01*
X267787Y477827D01*
X267798Y477840D01*
X267810Y477870D01*
X267854Y477950D01*
X269257Y481336D01*
X273044Y485123D01*
X277992Y487173D01*
X283348Y487173D01*
X288296Y485123D01*
X292083Y481336D01*
X292667Y479927D01*
X292705Y479866D01*
X292734Y479801D01*
X292769Y479762D01*
X292796Y479718D01*
X292852Y479672D01*
X292900Y479620D01*
X292946Y479595D01*
X292986Y479561D01*
X293053Y479536D01*
X293116Y479501D01*
X293167Y479492D01*
X293215Y479473D01*
X293287Y479470D01*
X293358Y479457D01*
X293409Y479465D01*
X293461Y479463D01*
X293530Y479483D01*
X293601Y479493D01*
X293647Y479517D01*
X293697Y479531D01*
X293756Y479572D01*
X293820Y479605D01*
X293857Y479642D01*
X293899Y479672D01*
X293942Y479729D01*
X293992Y479780D01*
X294027Y479843D01*
X294046Y479869D01*
X294053Y479891D01*
X294073Y479927D01*
X294657Y481336D01*
X298444Y485123D01*
X303392Y487173D01*
X308748Y487173D01*
X313696Y485123D01*
X317483Y481336D01*
X319533Y476388D01*
X319533Y471032D01*
X317483Y466084D01*
X313696Y462297D01*
X308748Y460247D01*
X304085Y460247D01*
X303995Y460233D01*
X303904Y460225D01*
X303874Y460213D01*
X303842Y460208D01*
X303761Y460165D01*
X303677Y460129D01*
X303645Y460103D01*
X303625Y460092D01*
X303602Y460069D01*
X303546Y460024D01*
X273020Y429498D01*
X272967Y429424D01*
X272907Y429354D01*
X272895Y429324D01*
X272876Y429298D01*
X272849Y429211D01*
X272815Y429126D01*
X272811Y429085D01*
X272804Y429063D01*
X272805Y429031D01*
X272797Y428959D01*
X272797Y422701D01*
X272812Y422605D01*
X272822Y422508D01*
X272832Y422484D01*
X272836Y422458D01*
X272882Y422372D01*
X272922Y422283D01*
X272939Y422264D01*
X272952Y422241D01*
X273022Y422174D01*
X273088Y422102D01*
X273111Y422089D01*
X273130Y422071D01*
X273218Y422030D01*
X273304Y421983D01*
X273329Y421979D01*
X273353Y421968D01*
X273450Y421957D01*
X273546Y421940D01*
X273572Y421944D01*
X273597Y421941D01*
X273693Y421961D01*
X273789Y421976D01*
X273812Y421987D01*
X273838Y421993D01*
X273921Y422043D01*
X274008Y422087D01*
X274027Y422106D01*
X274049Y422119D01*
X274112Y422193D01*
X274180Y422263D01*
X274196Y422291D01*
X274209Y422306D01*
X274221Y422337D01*
X274261Y422410D01*
X275513Y425431D01*
X278657Y428575D01*
X282765Y430277D01*
X301435Y430277D01*
X305543Y428575D01*
X308699Y425420D01*
X308773Y425367D01*
X308842Y425307D01*
X308872Y425295D01*
X308898Y425276D01*
X308985Y425249D01*
X309070Y425215D01*
X309111Y425211D01*
X309133Y425204D01*
X309166Y425205D01*
X309237Y425197D01*
X320175Y425197D01*
X320265Y425211D01*
X320356Y425219D01*
X320386Y425231D01*
X320418Y425236D01*
X320499Y425279D01*
X320582Y425315D01*
X320615Y425341D01*
X320635Y425352D01*
X320657Y425375D01*
X320713Y425420D01*
X323880Y428587D01*
X323933Y428661D01*
X323993Y428730D01*
X324005Y428760D01*
X324024Y428786D01*
X324051Y428873D01*
X324085Y428958D01*
X324089Y428999D01*
X324096Y429021D01*
X324095Y429054D01*
X324103Y429125D01*
X324103Y445713D01*
X325031Y447954D01*
X364846Y487769D01*
X367087Y488697D01*
X383675Y488697D01*
X383765Y488711D01*
X383856Y488719D01*
X383886Y488731D01*
X383918Y488736D01*
X383999Y488779D01*
X384082Y488815D01*
X384115Y488841D01*
X384135Y488852D01*
X384157Y488875D01*
X384213Y488920D01*
X389070Y493777D01*
X398330Y493777D01*
X404877Y487230D01*
X404877Y477970D01*
X398330Y471423D01*
X389070Y471423D01*
X384213Y476280D01*
X384139Y476333D01*
X384070Y476393D01*
X384040Y476405D01*
X384014Y476424D01*
X383927Y476451D01*
X383842Y476485D01*
X383801Y476489D01*
X383779Y476496D01*
X383746Y476495D01*
X383675Y476503D01*
X371141Y476503D01*
X371051Y476489D01*
X370960Y476481D01*
X370930Y476469D01*
X370898Y476464D01*
X370817Y476421D01*
X370733Y476385D01*
X370701Y476359D01*
X370681Y476348D01*
X370658Y476325D01*
X370602Y476280D01*
X336520Y442198D01*
X336467Y442124D01*
X336407Y442054D01*
X336395Y442024D01*
X336376Y441998D01*
X336349Y441911D01*
X336315Y441826D01*
X336311Y441785D01*
X336304Y441763D01*
X336305Y441731D01*
X336297Y441659D01*
X336297Y429125D01*
X336311Y429035D01*
X336319Y428944D01*
X336331Y428914D01*
X336336Y428882D01*
X336379Y428801D01*
X336415Y428718D01*
X336441Y428685D01*
X336452Y428665D01*
X336475Y428643D01*
X336520Y428587D01*
X341377Y423730D01*
X341377Y414470D01*
X334830Y407923D01*
X325570Y407923D01*
X320713Y412780D01*
X320639Y412833D01*
X320570Y412893D01*
X320540Y412905D01*
X320514Y412924D01*
X320427Y412951D01*
X320342Y412985D01*
X320301Y412989D01*
X320279Y412996D01*
X320246Y412995D01*
X320175Y413003D01*
X309237Y413003D01*
X309147Y412989D01*
X309056Y412981D01*
X309026Y412969D01*
X308994Y412964D01*
X308913Y412921D01*
X308830Y412885D01*
X308797Y412859D01*
X308777Y412848D01*
X308755Y412825D01*
X308699Y412780D01*
X305543Y409625D01*
X301435Y407923D01*
X282765Y407923D01*
X278657Y409625D01*
X275513Y412769D01*
X274261Y415790D01*
X274210Y415873D01*
X274164Y415959D01*
X274146Y415977D01*
X274132Y415999D01*
X274056Y416062D01*
X273986Y416129D01*
X273962Y416140D01*
X273942Y416156D01*
X273851Y416191D01*
X273763Y416232D01*
X273737Y416235D01*
X273713Y416244D01*
X273615Y416249D01*
X273519Y416259D01*
X273493Y416254D01*
X273467Y416255D01*
X273373Y416228D01*
X273278Y416207D01*
X273256Y416194D01*
X273231Y416186D01*
X273151Y416131D01*
X273067Y416081D01*
X273050Y416061D01*
X273029Y416046D01*
X272970Y415968D01*
X272907Y415894D01*
X272897Y415870D01*
X272882Y415849D01*
X272852Y415756D01*
X272815Y415666D01*
X272812Y415633D01*
X272806Y415615D01*
X272806Y415582D01*
X272797Y415499D01*
X272797Y371901D01*
X272812Y371805D01*
X272822Y371708D01*
X272832Y371684D01*
X272836Y371658D01*
X272882Y371572D01*
X272922Y371483D01*
X272939Y371464D01*
X272952Y371441D01*
X273022Y371374D01*
X273088Y371302D01*
X273111Y371289D01*
X273130Y371271D01*
X273218Y371230D01*
X273304Y371183D01*
X273329Y371179D01*
X273353Y371168D01*
X273450Y371157D01*
X273546Y371140D01*
X273572Y371144D01*
X273597Y371141D01*
X273693Y371161D01*
X273789Y371176D01*
X273812Y371187D01*
X273838Y371193D01*
X273921Y371243D01*
X274008Y371287D01*
X274027Y371306D01*
X274049Y371319D01*
X274112Y371393D01*
X274180Y371463D01*
X274196Y371491D01*
X274209Y371506D01*
X274221Y371537D01*
X274261Y371610D01*
X275513Y374631D01*
X278657Y377775D01*
X282765Y379477D01*
X301435Y379477D01*
X305543Y377775D01*
X308687Y374631D01*
X310389Y370523D01*
X310389Y366077D01*
X308687Y361969D01*
X305543Y358825D01*
X301435Y357123D01*
X282765Y357123D01*
X278657Y358825D01*
X275513Y361969D01*
X274261Y364990D01*
X274210Y365073D01*
X274164Y365159D01*
X274146Y365177D01*
X274132Y365199D01*
X274056Y365262D01*
X273986Y365329D01*
X273962Y365340D01*
X273942Y365356D01*
X273851Y365391D01*
X273763Y365432D01*
X273737Y365435D01*
X273713Y365444D01*
X273615Y365449D01*
X273519Y365459D01*
X273493Y365454D01*
X273467Y365455D01*
X273373Y365428D01*
X273278Y365407D01*
X273256Y365394D01*
X273231Y365386D01*
X273151Y365331D01*
X273067Y365281D01*
X273050Y365261D01*
X273029Y365246D01*
X272970Y365168D01*
X272907Y365094D01*
X272897Y365070D01*
X272882Y365049D01*
X272852Y364956D01*
X272815Y364866D01*
X272812Y364833D01*
X272806Y364815D01*
X272806Y364782D01*
X272797Y364699D01*
X272797Y354387D01*
X271869Y352146D01*
X233723Y314001D01*
X233685Y313948D01*
X233639Y313901D01*
X233599Y313828D01*
X233579Y313801D01*
X233574Y313783D01*
X233558Y313754D01*
X232487Y311169D01*
X229343Y308025D01*
X225235Y306323D01*
X206565Y306323D01*
G37*
%LPD*%
%LPC*%
G36*
X469899Y139699D02*
X469899Y139699D01*
X469899Y140462D01*
X469896Y140482D01*
X469898Y140501D01*
X469876Y140603D01*
X469859Y140705D01*
X469850Y140722D01*
X469846Y140742D01*
X469793Y140831D01*
X469744Y140922D01*
X469730Y140936D01*
X469720Y140953D01*
X469641Y141020D01*
X469566Y141091D01*
X469548Y141100D01*
X469533Y141113D01*
X469437Y141152D01*
X469343Y141195D01*
X469323Y141197D01*
X469305Y141205D01*
X469138Y141223D01*
X458054Y141223D01*
X458255Y142496D01*
X458836Y144283D01*
X459689Y145957D01*
X460794Y147478D01*
X462122Y148806D01*
X463643Y149911D01*
X465317Y150764D01*
X465604Y150857D01*
X465694Y150904D01*
X465786Y150945D01*
X465802Y150960D01*
X465822Y150970D01*
X465893Y151043D01*
X465967Y151111D01*
X465978Y151131D01*
X465993Y151147D01*
X466037Y151238D01*
X466086Y151327D01*
X466090Y151349D01*
X466099Y151369D01*
X466112Y151469D01*
X466130Y151569D01*
X466126Y151591D01*
X466129Y151613D01*
X466109Y151712D01*
X466094Y151812D01*
X466084Y151832D01*
X466079Y151854D01*
X466028Y151941D01*
X465982Y152031D01*
X465966Y152047D01*
X465955Y152066D01*
X465879Y152133D01*
X465807Y152204D01*
X465783Y152217D01*
X465770Y152228D01*
X465740Y152240D01*
X465660Y152284D01*
X462274Y153687D01*
X458487Y157474D01*
X458048Y158533D01*
X457987Y158633D01*
X457927Y158733D01*
X457922Y158737D01*
X457918Y158742D01*
X457829Y158817D01*
X457740Y158893D01*
X457734Y158895D01*
X457729Y158899D01*
X457621Y158941D01*
X457511Y158985D01*
X457504Y158986D01*
X457499Y158987D01*
X457481Y158988D01*
X457345Y159003D01*
X455987Y159003D01*
X453746Y159931D01*
X426631Y187046D01*
X425703Y189287D01*
X425703Y225759D01*
X425689Y225849D01*
X425681Y225940D01*
X425669Y225970D01*
X425664Y226002D01*
X425621Y226083D01*
X425585Y226167D01*
X425559Y226199D01*
X425548Y226219D01*
X425525Y226242D01*
X425480Y226298D01*
X401231Y250546D01*
X400303Y252787D01*
X400303Y341765D01*
X400289Y341855D01*
X400281Y341946D01*
X400269Y341976D01*
X400264Y342008D01*
X400221Y342089D01*
X400185Y342172D01*
X400159Y342205D01*
X400148Y342225D01*
X400125Y342247D01*
X400080Y342303D01*
X395223Y347160D01*
X395223Y356420D01*
X401770Y362967D01*
X411030Y362967D01*
X417577Y356420D01*
X417577Y347160D01*
X412720Y342303D01*
X412667Y342229D01*
X412607Y342160D01*
X412595Y342130D01*
X412576Y342104D01*
X412549Y342017D01*
X412515Y341932D01*
X412511Y341891D01*
X412504Y341869D01*
X412505Y341836D01*
X412497Y341765D01*
X412497Y256841D01*
X412511Y256751D01*
X412519Y256660D01*
X412531Y256630D01*
X412536Y256598D01*
X412579Y256517D01*
X412615Y256433D01*
X412641Y256401D01*
X412652Y256381D01*
X412675Y256358D01*
X412720Y256302D01*
X436969Y232054D01*
X437897Y229813D01*
X437897Y193341D01*
X437911Y193251D01*
X437919Y193160D01*
X437931Y193130D01*
X437936Y193098D01*
X437979Y193017D01*
X438015Y192933D01*
X438041Y192901D01*
X438052Y192881D01*
X438075Y192858D01*
X438120Y192802D01*
X457803Y173119D01*
X457819Y173107D01*
X457832Y173092D01*
X457919Y173036D01*
X458003Y172975D01*
X458022Y172970D01*
X458039Y172959D01*
X458139Y172933D01*
X458238Y172903D01*
X458258Y172904D01*
X458277Y172899D01*
X458380Y172907D01*
X458484Y172909D01*
X458503Y172916D01*
X458522Y172918D01*
X458617Y172958D01*
X458715Y172994D01*
X458731Y173006D01*
X458749Y173014D01*
X458880Y173119D01*
X462274Y176513D01*
X463683Y177097D01*
X463744Y177134D01*
X463809Y177164D01*
X463848Y177199D01*
X463892Y177226D01*
X463938Y177282D01*
X463990Y177330D01*
X464015Y177376D01*
X464049Y177416D01*
X464074Y177483D01*
X464109Y177546D01*
X464118Y177597D01*
X464137Y177645D01*
X464140Y177717D01*
X464153Y177788D01*
X464145Y177839D01*
X464147Y177891D01*
X464127Y177960D01*
X464117Y178031D01*
X464093Y178077D01*
X464079Y178127D01*
X464038Y178186D01*
X464005Y178250D01*
X463968Y178287D01*
X463938Y178329D01*
X463881Y178372D01*
X463830Y178422D01*
X463767Y178457D01*
X463741Y178476D01*
X463719Y178483D01*
X463683Y178503D01*
X462274Y179087D01*
X458487Y182874D01*
X456437Y187822D01*
X456437Y193178D01*
X458487Y198126D01*
X462274Y201913D01*
X463683Y202497D01*
X463744Y202534D01*
X463809Y202564D01*
X463848Y202599D01*
X463892Y202626D01*
X463938Y202682D01*
X463990Y202730D01*
X464015Y202776D01*
X464049Y202816D01*
X464074Y202883D01*
X464109Y202946D01*
X464118Y202997D01*
X464137Y203045D01*
X464140Y203117D01*
X464153Y203188D01*
X464145Y203239D01*
X464147Y203291D01*
X464127Y203360D01*
X464117Y203431D01*
X464093Y203477D01*
X464079Y203527D01*
X464038Y203586D01*
X464005Y203650D01*
X463968Y203687D01*
X463938Y203729D01*
X463881Y203772D01*
X463830Y203822D01*
X463767Y203857D01*
X463741Y203876D01*
X463719Y203883D01*
X463683Y203903D01*
X462274Y204487D01*
X458487Y208274D01*
X456437Y213222D01*
X456437Y218578D01*
X458487Y223526D01*
X462274Y227313D01*
X463683Y227897D01*
X463744Y227934D01*
X463809Y227964D01*
X463848Y227999D01*
X463892Y228026D01*
X463938Y228082D01*
X463990Y228130D01*
X464015Y228176D01*
X464049Y228216D01*
X464074Y228283D01*
X464109Y228346D01*
X464118Y228397D01*
X464137Y228445D01*
X464140Y228517D01*
X464153Y228588D01*
X464145Y228639D01*
X464147Y228691D01*
X464127Y228760D01*
X464117Y228831D01*
X464093Y228877D01*
X464079Y228927D01*
X464038Y228986D01*
X464005Y229050D01*
X463968Y229087D01*
X463938Y229129D01*
X463881Y229172D01*
X463830Y229222D01*
X463767Y229257D01*
X463741Y229276D01*
X463719Y229283D01*
X463683Y229303D01*
X462274Y229887D01*
X458487Y233674D01*
X456437Y238622D01*
X456437Y243978D01*
X458487Y248926D01*
X462274Y252713D01*
X463683Y253297D01*
X463744Y253334D01*
X463809Y253364D01*
X463848Y253399D01*
X463892Y253426D01*
X463938Y253482D01*
X463990Y253530D01*
X464015Y253576D01*
X464049Y253616D01*
X464074Y253683D01*
X464109Y253746D01*
X464118Y253797D01*
X464137Y253845D01*
X464140Y253917D01*
X464153Y253988D01*
X464145Y254039D01*
X464147Y254091D01*
X464127Y254160D01*
X464117Y254231D01*
X464093Y254277D01*
X464079Y254327D01*
X464038Y254386D01*
X464005Y254450D01*
X463968Y254487D01*
X463938Y254529D01*
X463881Y254572D01*
X463830Y254622D01*
X463767Y254657D01*
X463741Y254676D01*
X463719Y254683D01*
X463683Y254703D01*
X462274Y255287D01*
X458487Y259074D01*
X456437Y264022D01*
X456437Y269378D01*
X458487Y274326D01*
X462274Y278113D01*
X463683Y278697D01*
X463744Y278734D01*
X463809Y278764D01*
X463848Y278799D01*
X463892Y278826D01*
X463938Y278882D01*
X463990Y278930D01*
X464015Y278976D01*
X464049Y279016D01*
X464074Y279083D01*
X464109Y279146D01*
X464118Y279197D01*
X464137Y279245D01*
X464140Y279317D01*
X464153Y279388D01*
X464145Y279439D01*
X464147Y279491D01*
X464127Y279560D01*
X464117Y279631D01*
X464093Y279677D01*
X464079Y279727D01*
X464038Y279786D01*
X464005Y279850D01*
X463968Y279887D01*
X463938Y279929D01*
X463881Y279972D01*
X463830Y280022D01*
X463767Y280057D01*
X463741Y280076D01*
X463719Y280083D01*
X463683Y280103D01*
X462274Y280687D01*
X458487Y284474D01*
X456437Y289422D01*
X456437Y294778D01*
X458487Y299726D01*
X462274Y303513D01*
X463683Y304097D01*
X463744Y304134D01*
X463809Y304164D01*
X463848Y304199D01*
X463892Y304226D01*
X463938Y304282D01*
X463990Y304330D01*
X464015Y304376D01*
X464049Y304416D01*
X464074Y304483D01*
X464109Y304546D01*
X464118Y304597D01*
X464137Y304645D01*
X464140Y304717D01*
X464153Y304788D01*
X464145Y304839D01*
X464147Y304891D01*
X464127Y304960D01*
X464117Y305031D01*
X464093Y305077D01*
X464079Y305127D01*
X464038Y305186D01*
X464005Y305250D01*
X463968Y305287D01*
X463938Y305329D01*
X463881Y305372D01*
X463830Y305422D01*
X463767Y305457D01*
X463741Y305476D01*
X463719Y305483D01*
X463683Y305503D01*
X462274Y306087D01*
X458487Y309874D01*
X456437Y314822D01*
X456437Y320178D01*
X458487Y325126D01*
X462274Y328913D01*
X463683Y329497D01*
X463744Y329534D01*
X463809Y329564D01*
X463848Y329599D01*
X463892Y329626D01*
X463938Y329682D01*
X463990Y329730D01*
X464015Y329776D01*
X464049Y329816D01*
X464074Y329883D01*
X464109Y329946D01*
X464118Y329997D01*
X464137Y330045D01*
X464140Y330117D01*
X464153Y330188D01*
X464145Y330239D01*
X464147Y330291D01*
X464127Y330360D01*
X464117Y330431D01*
X464093Y330477D01*
X464079Y330527D01*
X464038Y330586D01*
X464005Y330650D01*
X463968Y330687D01*
X463938Y330729D01*
X463881Y330772D01*
X463830Y330822D01*
X463767Y330857D01*
X463741Y330876D01*
X463719Y330883D01*
X463683Y330903D01*
X462274Y331487D01*
X458487Y335274D01*
X456437Y340222D01*
X456437Y345578D01*
X458487Y350526D01*
X462274Y354313D01*
X463683Y354897D01*
X463744Y354934D01*
X463809Y354964D01*
X463848Y354999D01*
X463892Y355026D01*
X463938Y355082D01*
X463990Y355130D01*
X464015Y355176D01*
X464049Y355216D01*
X464074Y355283D01*
X464109Y355346D01*
X464118Y355397D01*
X464137Y355445D01*
X464140Y355517D01*
X464153Y355588D01*
X464145Y355639D01*
X464147Y355691D01*
X464127Y355760D01*
X464117Y355831D01*
X464093Y355877D01*
X464079Y355927D01*
X464038Y355986D01*
X464005Y356050D01*
X463968Y356087D01*
X463938Y356129D01*
X463881Y356172D01*
X463830Y356222D01*
X463767Y356257D01*
X463741Y356276D01*
X463719Y356283D01*
X463683Y356303D01*
X462274Y356887D01*
X458487Y360674D01*
X456437Y365622D01*
X456437Y370978D01*
X458487Y375926D01*
X462274Y379713D01*
X467222Y381763D01*
X472578Y381763D01*
X477526Y379713D01*
X481313Y375926D01*
X483363Y370978D01*
X483363Y365622D01*
X481313Y360674D01*
X477526Y356887D01*
X476117Y356303D01*
X476056Y356265D01*
X475991Y356236D01*
X475952Y356201D01*
X475908Y356174D01*
X475862Y356118D01*
X475810Y356070D01*
X475785Y356024D01*
X475751Y355984D01*
X475726Y355917D01*
X475691Y355854D01*
X475682Y355803D01*
X475663Y355755D01*
X475660Y355683D01*
X475647Y355612D01*
X475655Y355561D01*
X475653Y355509D01*
X475673Y355440D01*
X475683Y355369D01*
X475707Y355323D01*
X475721Y355273D01*
X475762Y355214D01*
X475795Y355150D01*
X475832Y355113D01*
X475862Y355071D01*
X475919Y355028D01*
X475970Y354978D01*
X476033Y354943D01*
X476059Y354924D01*
X476081Y354917D01*
X476117Y354897D01*
X477526Y354313D01*
X481313Y350526D01*
X483363Y345578D01*
X483363Y340222D01*
X481313Y335274D01*
X477526Y331487D01*
X476117Y330903D01*
X476056Y330865D01*
X475991Y330836D01*
X475952Y330801D01*
X475908Y330774D01*
X475862Y330718D01*
X475810Y330670D01*
X475785Y330624D01*
X475751Y330584D01*
X475726Y330517D01*
X475691Y330454D01*
X475682Y330403D01*
X475663Y330355D01*
X475660Y330283D01*
X475647Y330212D01*
X475655Y330161D01*
X475653Y330109D01*
X475673Y330040D01*
X475683Y329969D01*
X475707Y329923D01*
X475721Y329873D01*
X475762Y329814D01*
X475795Y329750D01*
X475832Y329713D01*
X475862Y329671D01*
X475919Y329628D01*
X475970Y329578D01*
X476033Y329543D01*
X476059Y329524D01*
X476081Y329517D01*
X476117Y329497D01*
X477526Y328913D01*
X481313Y325126D01*
X483363Y320178D01*
X483363Y314822D01*
X481313Y309874D01*
X477526Y306087D01*
X476117Y305503D01*
X476056Y305465D01*
X475991Y305436D01*
X475952Y305401D01*
X475908Y305374D01*
X475862Y305318D01*
X475810Y305270D01*
X475785Y305224D01*
X475751Y305184D01*
X475726Y305117D01*
X475691Y305054D01*
X475682Y305003D01*
X475663Y304955D01*
X475660Y304883D01*
X475647Y304812D01*
X475655Y304761D01*
X475653Y304709D01*
X475673Y304640D01*
X475683Y304569D01*
X475707Y304523D01*
X475721Y304473D01*
X475762Y304414D01*
X475795Y304350D01*
X475832Y304313D01*
X475862Y304271D01*
X475919Y304228D01*
X475970Y304178D01*
X476033Y304143D01*
X476059Y304124D01*
X476081Y304117D01*
X476117Y304097D01*
X477526Y303513D01*
X481313Y299726D01*
X483363Y294778D01*
X483363Y289422D01*
X481313Y284474D01*
X477526Y280687D01*
X476117Y280103D01*
X476056Y280065D01*
X475991Y280036D01*
X475952Y280001D01*
X475908Y279974D01*
X475862Y279918D01*
X475810Y279870D01*
X475785Y279824D01*
X475751Y279784D01*
X475726Y279717D01*
X475691Y279654D01*
X475682Y279603D01*
X475663Y279555D01*
X475660Y279483D01*
X475647Y279412D01*
X475655Y279361D01*
X475653Y279309D01*
X475673Y279240D01*
X475683Y279169D01*
X475707Y279123D01*
X475721Y279073D01*
X475762Y279014D01*
X475795Y278950D01*
X475832Y278913D01*
X475862Y278871D01*
X475919Y278828D01*
X475970Y278778D01*
X476033Y278743D01*
X476059Y278724D01*
X476081Y278717D01*
X476117Y278697D01*
X477526Y278113D01*
X481313Y274326D01*
X483363Y269378D01*
X483363Y264022D01*
X481313Y259074D01*
X477526Y255287D01*
X476117Y254703D01*
X476056Y254665D01*
X475991Y254636D01*
X475952Y254601D01*
X475908Y254574D01*
X475862Y254518D01*
X475810Y254470D01*
X475785Y254424D01*
X475751Y254384D01*
X475726Y254317D01*
X475691Y254254D01*
X475682Y254203D01*
X475663Y254155D01*
X475660Y254083D01*
X475647Y254012D01*
X475655Y253961D01*
X475653Y253909D01*
X475673Y253840D01*
X475683Y253769D01*
X475707Y253723D01*
X475721Y253673D01*
X475762Y253614D01*
X475795Y253550D01*
X475832Y253513D01*
X475862Y253471D01*
X475919Y253428D01*
X475970Y253378D01*
X476033Y253343D01*
X476059Y253324D01*
X476081Y253317D01*
X476117Y253297D01*
X477526Y252713D01*
X481313Y248926D01*
X483363Y243978D01*
X483363Y238622D01*
X481313Y233674D01*
X477526Y229887D01*
X476117Y229303D01*
X476056Y229265D01*
X475991Y229236D01*
X475952Y229201D01*
X475908Y229174D01*
X475862Y229118D01*
X475810Y229070D01*
X475785Y229024D01*
X475751Y228984D01*
X475726Y228917D01*
X475691Y228854D01*
X475682Y228803D01*
X475663Y228755D01*
X475660Y228683D01*
X475647Y228612D01*
X475655Y228561D01*
X475653Y228509D01*
X475673Y228440D01*
X475683Y228369D01*
X475707Y228323D01*
X475721Y228273D01*
X475762Y228214D01*
X475795Y228150D01*
X475832Y228113D01*
X475862Y228071D01*
X475919Y228028D01*
X475970Y227978D01*
X476033Y227943D01*
X476059Y227924D01*
X476081Y227917D01*
X476117Y227897D01*
X477526Y227313D01*
X481313Y223526D01*
X483363Y218578D01*
X483363Y213222D01*
X481313Y208274D01*
X477526Y204487D01*
X476117Y203903D01*
X476056Y203865D01*
X475991Y203836D01*
X475952Y203801D01*
X475908Y203774D01*
X475862Y203718D01*
X475810Y203670D01*
X475785Y203624D01*
X475751Y203584D01*
X475726Y203517D01*
X475691Y203454D01*
X475682Y203403D01*
X475663Y203355D01*
X475660Y203283D01*
X475647Y203212D01*
X475655Y203161D01*
X475653Y203109D01*
X475673Y203040D01*
X475683Y202969D01*
X475707Y202923D01*
X475721Y202873D01*
X475762Y202814D01*
X475795Y202750D01*
X475832Y202713D01*
X475862Y202671D01*
X475919Y202628D01*
X475970Y202578D01*
X476033Y202543D01*
X476059Y202524D01*
X476081Y202517D01*
X476117Y202497D01*
X477526Y201913D01*
X481313Y198126D01*
X483363Y193178D01*
X483363Y187822D01*
X481313Y182874D01*
X477526Y179087D01*
X476117Y178503D01*
X476056Y178465D01*
X475991Y178436D01*
X475952Y178401D01*
X475908Y178374D01*
X475862Y178318D01*
X475810Y178270D01*
X475785Y178224D01*
X475751Y178184D01*
X475726Y178117D01*
X475691Y178054D01*
X475682Y178003D01*
X475663Y177955D01*
X475660Y177883D01*
X475647Y177812D01*
X475655Y177761D01*
X475653Y177709D01*
X475673Y177640D01*
X475683Y177569D01*
X475707Y177523D01*
X475721Y177473D01*
X475762Y177414D01*
X475795Y177350D01*
X475832Y177313D01*
X475862Y177271D01*
X475919Y177228D01*
X475970Y177178D01*
X476033Y177143D01*
X476059Y177124D01*
X476081Y177117D01*
X476117Y177097D01*
X477526Y176513D01*
X481313Y172726D01*
X483363Y167778D01*
X483363Y162422D01*
X481313Y157474D01*
X477526Y153687D01*
X474140Y152284D01*
X474054Y152231D01*
X473965Y152183D01*
X473950Y152166D01*
X473931Y152155D01*
X473867Y152077D01*
X473798Y152003D01*
X473789Y151982D01*
X473774Y151965D01*
X473738Y151871D01*
X473696Y151778D01*
X473694Y151756D01*
X473686Y151736D01*
X473682Y151635D01*
X473672Y151534D01*
X473677Y151512D01*
X473676Y151490D01*
X473704Y151393D01*
X473727Y151294D01*
X473738Y151275D01*
X473744Y151254D01*
X473802Y151171D01*
X473855Y151084D01*
X473872Y151070D01*
X473885Y151052D01*
X473966Y150991D01*
X474044Y150926D01*
X474068Y150915D01*
X474082Y150905D01*
X474113Y150895D01*
X474196Y150857D01*
X474483Y150764D01*
X476157Y149911D01*
X477678Y148806D01*
X479006Y147478D01*
X480111Y145957D01*
X480964Y144283D01*
X481545Y142496D01*
X481746Y141223D01*
X470662Y141223D01*
X470642Y141220D01*
X470623Y141222D01*
X470521Y141200D01*
X470419Y141183D01*
X470402Y141174D01*
X470382Y141170D01*
X470293Y141117D01*
X470202Y141068D01*
X470188Y141054D01*
X470171Y141044D01*
X470104Y140965D01*
X470033Y140890D01*
X470024Y140872D01*
X470011Y140857D01*
X469973Y140761D01*
X469929Y140667D01*
X469927Y140647D01*
X469919Y140629D01*
X469901Y140462D01*
X469901Y139699D01*
X469899Y139699D01*
G37*
%LPD*%
%LPC*%
G36*
X49138Y144045D02*
X49138Y144045D01*
X46067Y145317D01*
X43717Y147667D01*
X42445Y150738D01*
X42445Y154062D01*
X43629Y156920D01*
X43644Y156984D01*
X43669Y157045D01*
X43678Y157128D01*
X43685Y157160D01*
X43684Y157179D01*
X43687Y157212D01*
X43687Y211088D01*
X43677Y211153D01*
X43676Y211218D01*
X43653Y211298D01*
X43648Y211331D01*
X43638Y211348D01*
X43629Y211380D01*
X42445Y214238D01*
X42445Y217562D01*
X43717Y220633D01*
X46067Y222983D01*
X49138Y224255D01*
X52462Y224255D01*
X55533Y222983D01*
X56104Y222412D01*
X56162Y222370D01*
X56214Y222320D01*
X56261Y222298D01*
X56303Y222268D01*
X56372Y222247D01*
X56437Y222217D01*
X56489Y222211D01*
X56539Y222196D01*
X56610Y222198D01*
X56681Y222190D01*
X56732Y222201D01*
X56784Y222202D01*
X56852Y222227D01*
X56922Y222242D01*
X56967Y222269D01*
X57015Y222287D01*
X57071Y222331D01*
X57133Y222368D01*
X57167Y222408D01*
X57207Y222440D01*
X57246Y222501D01*
X57293Y222555D01*
X57312Y222603D01*
X57340Y222647D01*
X57358Y222717D01*
X57385Y222783D01*
X57393Y222854D01*
X57401Y222886D01*
X57399Y222909D01*
X57403Y222950D01*
X57403Y313633D01*
X58331Y315874D01*
X91470Y349012D01*
X91523Y349086D01*
X91583Y349156D01*
X91595Y349186D01*
X91614Y349212D01*
X91641Y349299D01*
X91675Y349384D01*
X91679Y349425D01*
X91686Y349447D01*
X91685Y349479D01*
X91693Y349551D01*
X91693Y356420D01*
X96550Y361277D01*
X96603Y361351D01*
X96663Y361420D01*
X96675Y361450D01*
X96694Y361476D01*
X96721Y361563D01*
X96755Y361648D01*
X96759Y361689D01*
X96766Y361711D01*
X96765Y361744D01*
X96773Y361815D01*
X96773Y388281D01*
X97701Y390522D01*
X120962Y413782D01*
X121015Y413856D01*
X121075Y413926D01*
X121087Y413956D01*
X121106Y413982D01*
X121133Y414069D01*
X121167Y414154D01*
X121171Y414195D01*
X121178Y414217D01*
X121177Y414249D01*
X121185Y414321D01*
X121185Y415400D01*
X122496Y418563D01*
X122522Y418677D01*
X122551Y418791D01*
X122550Y418797D01*
X122552Y418803D01*
X122541Y418920D01*
X122532Y419036D01*
X122529Y419042D01*
X122529Y419048D01*
X122481Y419155D01*
X122435Y419262D01*
X122431Y419268D01*
X122429Y419273D01*
X122416Y419286D01*
X122331Y419393D01*
X118363Y423360D01*
X118363Y432620D01*
X124910Y439167D01*
X134170Y439167D01*
X140717Y432620D01*
X140717Y423360D01*
X136749Y419393D01*
X136681Y419299D01*
X136611Y419204D01*
X136609Y419198D01*
X136606Y419193D01*
X136572Y419082D01*
X136535Y418971D01*
X136535Y418964D01*
X136533Y418958D01*
X136536Y418842D01*
X136538Y418725D01*
X136540Y418717D01*
X136540Y418712D01*
X136546Y418695D01*
X136584Y418563D01*
X137895Y415400D01*
X137895Y412076D01*
X136623Y409005D01*
X134273Y406655D01*
X131202Y405383D01*
X130123Y405383D01*
X130033Y405369D01*
X129942Y405361D01*
X129912Y405349D01*
X129880Y405344D01*
X129799Y405301D01*
X129715Y405265D01*
X129683Y405239D01*
X129663Y405228D01*
X129640Y405205D01*
X129584Y405160D01*
X109190Y384766D01*
X109137Y384692D01*
X109077Y384622D01*
X109065Y384592D01*
X109046Y384566D01*
X109019Y384479D01*
X108985Y384394D01*
X108981Y384353D01*
X108974Y384331D01*
X108975Y384299D01*
X108967Y384227D01*
X108967Y361815D01*
X108981Y361725D01*
X108989Y361634D01*
X109001Y361604D01*
X109006Y361572D01*
X109049Y361491D01*
X109085Y361408D01*
X109111Y361375D01*
X109122Y361355D01*
X109145Y361333D01*
X109190Y361277D01*
X114047Y356420D01*
X114047Y347160D01*
X107500Y340613D01*
X100631Y340613D01*
X100541Y340599D01*
X100450Y340591D01*
X100420Y340579D01*
X100388Y340574D01*
X100307Y340531D01*
X100223Y340495D01*
X100191Y340469D01*
X100171Y340458D01*
X100148Y340435D01*
X100092Y340390D01*
X69820Y310118D01*
X69767Y310044D01*
X69707Y309974D01*
X69695Y309944D01*
X69676Y309918D01*
X69649Y309831D01*
X69615Y309746D01*
X69611Y309705D01*
X69604Y309683D01*
X69605Y309651D01*
X69597Y309579D01*
X69597Y196534D01*
X69611Y196444D01*
X69619Y196353D01*
X69631Y196323D01*
X69636Y196291D01*
X69679Y196211D01*
X69715Y196127D01*
X69741Y196095D01*
X69752Y196074D01*
X69775Y196052D01*
X69820Y195996D01*
X70583Y195233D01*
X71855Y192162D01*
X71855Y188838D01*
X70583Y185767D01*
X68233Y183417D01*
X65162Y182145D01*
X61838Y182145D01*
X58965Y183335D01*
X58921Y183346D01*
X58879Y183365D01*
X58802Y183374D01*
X58726Y183391D01*
X58680Y183387D01*
X58635Y183392D01*
X58558Y183376D01*
X58481Y183368D01*
X58439Y183350D01*
X58394Y183340D01*
X58327Y183300D01*
X58256Y183268D01*
X58222Y183237D01*
X58183Y183214D01*
X58132Y183155D01*
X58075Y183102D01*
X58053Y183062D01*
X58023Y183027D01*
X57994Y182955D01*
X57957Y182886D01*
X57948Y182841D01*
X57931Y182799D01*
X57916Y182663D01*
X57913Y182644D01*
X57914Y182639D01*
X57913Y182632D01*
X57913Y157212D01*
X57923Y157147D01*
X57924Y157082D01*
X57947Y157001D01*
X57952Y156969D01*
X57962Y156952D01*
X57971Y156920D01*
X59155Y154062D01*
X59155Y150738D01*
X57883Y147667D01*
X55533Y145317D01*
X52462Y144045D01*
X49138Y144045D01*
G37*
%LPD*%
%LPC*%
G36*
X25399Y165099D02*
X25399Y165099D01*
X25399Y165862D01*
X25396Y165882D01*
X25398Y165901D01*
X25376Y166003D01*
X25359Y166105D01*
X25350Y166122D01*
X25346Y166142D01*
X25293Y166231D01*
X25244Y166322D01*
X25230Y166336D01*
X25220Y166353D01*
X25141Y166420D01*
X25066Y166491D01*
X25048Y166500D01*
X25033Y166513D01*
X24937Y166552D01*
X24843Y166595D01*
X24823Y166597D01*
X24805Y166605D01*
X24638Y166623D01*
X13554Y166623D01*
X13755Y167896D01*
X14336Y169683D01*
X15189Y171357D01*
X16294Y172878D01*
X17622Y174206D01*
X19143Y175311D01*
X20817Y176164D01*
X21104Y176257D01*
X21194Y176304D01*
X21286Y176345D01*
X21302Y176360D01*
X21322Y176370D01*
X21393Y176443D01*
X21467Y176511D01*
X21478Y176531D01*
X21493Y176547D01*
X21537Y176638D01*
X21586Y176727D01*
X21590Y176749D01*
X21599Y176769D01*
X21612Y176869D01*
X21630Y176969D01*
X21626Y176991D01*
X21629Y177013D01*
X21609Y177112D01*
X21594Y177212D01*
X21584Y177232D01*
X21579Y177254D01*
X21528Y177341D01*
X21482Y177431D01*
X21466Y177447D01*
X21455Y177466D01*
X21379Y177533D01*
X21307Y177604D01*
X21283Y177617D01*
X21270Y177628D01*
X21240Y177640D01*
X21160Y177684D01*
X17774Y179087D01*
X13987Y182874D01*
X11937Y187822D01*
X11937Y193178D01*
X13987Y198126D01*
X17774Y201913D01*
X19183Y202497D01*
X19244Y202534D01*
X19309Y202564D01*
X19348Y202599D01*
X19392Y202626D01*
X19438Y202682D01*
X19490Y202730D01*
X19515Y202776D01*
X19549Y202816D01*
X19574Y202883D01*
X19609Y202946D01*
X19618Y202997D01*
X19637Y203045D01*
X19640Y203117D01*
X19653Y203188D01*
X19645Y203239D01*
X19647Y203291D01*
X19627Y203360D01*
X19617Y203431D01*
X19593Y203477D01*
X19579Y203527D01*
X19538Y203586D01*
X19505Y203650D01*
X19468Y203687D01*
X19438Y203729D01*
X19381Y203772D01*
X19330Y203822D01*
X19267Y203857D01*
X19241Y203876D01*
X19219Y203883D01*
X19183Y203903D01*
X17774Y204487D01*
X13987Y208274D01*
X11937Y213222D01*
X11937Y218578D01*
X13987Y223526D01*
X17774Y227313D01*
X19183Y227897D01*
X19244Y227934D01*
X19309Y227964D01*
X19348Y227999D01*
X19392Y228026D01*
X19438Y228082D01*
X19490Y228130D01*
X19515Y228176D01*
X19549Y228216D01*
X19574Y228283D01*
X19609Y228346D01*
X19618Y228397D01*
X19637Y228445D01*
X19640Y228517D01*
X19653Y228588D01*
X19645Y228639D01*
X19647Y228691D01*
X19627Y228760D01*
X19617Y228831D01*
X19593Y228877D01*
X19579Y228927D01*
X19538Y228986D01*
X19505Y229050D01*
X19468Y229087D01*
X19438Y229129D01*
X19381Y229172D01*
X19330Y229222D01*
X19267Y229257D01*
X19241Y229276D01*
X19219Y229283D01*
X19183Y229303D01*
X17774Y229887D01*
X13987Y233674D01*
X11937Y238622D01*
X11937Y243978D01*
X13987Y248926D01*
X17774Y252713D01*
X19183Y253297D01*
X19244Y253334D01*
X19309Y253364D01*
X19348Y253399D01*
X19392Y253426D01*
X19438Y253482D01*
X19490Y253530D01*
X19515Y253576D01*
X19549Y253616D01*
X19574Y253683D01*
X19609Y253746D01*
X19618Y253797D01*
X19637Y253845D01*
X19640Y253917D01*
X19653Y253988D01*
X19645Y254039D01*
X19647Y254091D01*
X19627Y254160D01*
X19617Y254231D01*
X19593Y254277D01*
X19579Y254327D01*
X19538Y254386D01*
X19505Y254450D01*
X19468Y254487D01*
X19438Y254529D01*
X19381Y254572D01*
X19330Y254622D01*
X19267Y254657D01*
X19241Y254676D01*
X19219Y254683D01*
X19183Y254703D01*
X17774Y255287D01*
X13987Y259074D01*
X11937Y264022D01*
X11937Y269378D01*
X13987Y274326D01*
X17774Y278113D01*
X19183Y278697D01*
X19244Y278734D01*
X19309Y278764D01*
X19348Y278799D01*
X19392Y278826D01*
X19438Y278882D01*
X19490Y278930D01*
X19515Y278976D01*
X19549Y279016D01*
X19574Y279083D01*
X19609Y279146D01*
X19618Y279197D01*
X19637Y279245D01*
X19640Y279317D01*
X19653Y279388D01*
X19645Y279439D01*
X19647Y279491D01*
X19627Y279560D01*
X19617Y279631D01*
X19593Y279677D01*
X19579Y279727D01*
X19538Y279786D01*
X19505Y279850D01*
X19468Y279887D01*
X19438Y279929D01*
X19381Y279972D01*
X19330Y280022D01*
X19267Y280057D01*
X19241Y280076D01*
X19219Y280083D01*
X19183Y280103D01*
X17774Y280687D01*
X13987Y284474D01*
X11937Y289422D01*
X11937Y294778D01*
X13987Y299726D01*
X17774Y303513D01*
X19183Y304097D01*
X19244Y304134D01*
X19309Y304164D01*
X19348Y304199D01*
X19392Y304226D01*
X19438Y304282D01*
X19490Y304330D01*
X19515Y304376D01*
X19549Y304416D01*
X19574Y304483D01*
X19609Y304546D01*
X19618Y304597D01*
X19637Y304645D01*
X19640Y304717D01*
X19653Y304788D01*
X19645Y304839D01*
X19647Y304891D01*
X19627Y304960D01*
X19617Y305031D01*
X19593Y305077D01*
X19579Y305127D01*
X19538Y305186D01*
X19505Y305250D01*
X19468Y305287D01*
X19438Y305329D01*
X19381Y305372D01*
X19330Y305422D01*
X19267Y305457D01*
X19241Y305476D01*
X19219Y305483D01*
X19183Y305503D01*
X17774Y306087D01*
X13987Y309874D01*
X11937Y314822D01*
X11937Y320178D01*
X13987Y325126D01*
X17774Y328913D01*
X19183Y329497D01*
X19244Y329534D01*
X19309Y329564D01*
X19348Y329599D01*
X19392Y329626D01*
X19438Y329682D01*
X19490Y329730D01*
X19515Y329776D01*
X19549Y329816D01*
X19574Y329883D01*
X19609Y329946D01*
X19618Y329997D01*
X19637Y330045D01*
X19640Y330117D01*
X19653Y330188D01*
X19645Y330239D01*
X19647Y330291D01*
X19627Y330360D01*
X19617Y330431D01*
X19593Y330477D01*
X19579Y330527D01*
X19538Y330586D01*
X19505Y330650D01*
X19468Y330687D01*
X19438Y330729D01*
X19381Y330772D01*
X19330Y330822D01*
X19267Y330857D01*
X19241Y330876D01*
X19219Y330883D01*
X19183Y330903D01*
X17774Y331487D01*
X13987Y335274D01*
X11937Y340222D01*
X11937Y345578D01*
X13987Y350526D01*
X17774Y354313D01*
X19183Y354897D01*
X19244Y354934D01*
X19309Y354964D01*
X19348Y354999D01*
X19392Y355026D01*
X19438Y355082D01*
X19490Y355130D01*
X19515Y355176D01*
X19549Y355216D01*
X19574Y355283D01*
X19609Y355346D01*
X19618Y355397D01*
X19637Y355445D01*
X19640Y355517D01*
X19653Y355588D01*
X19645Y355639D01*
X19647Y355691D01*
X19627Y355760D01*
X19617Y355831D01*
X19593Y355877D01*
X19579Y355927D01*
X19538Y355986D01*
X19505Y356050D01*
X19468Y356087D01*
X19438Y356129D01*
X19381Y356172D01*
X19330Y356222D01*
X19267Y356257D01*
X19241Y356276D01*
X19219Y356283D01*
X19183Y356303D01*
X17774Y356887D01*
X13987Y360674D01*
X11937Y365622D01*
X11937Y370978D01*
X13987Y375926D01*
X17774Y379713D01*
X22722Y381763D01*
X28078Y381763D01*
X33026Y379713D01*
X36813Y375926D01*
X38863Y370978D01*
X38863Y365622D01*
X36813Y360674D01*
X33026Y356887D01*
X31617Y356303D01*
X31556Y356265D01*
X31491Y356236D01*
X31452Y356201D01*
X31408Y356174D01*
X31362Y356118D01*
X31310Y356070D01*
X31285Y356024D01*
X31251Y355984D01*
X31226Y355917D01*
X31191Y355854D01*
X31182Y355803D01*
X31163Y355755D01*
X31160Y355683D01*
X31147Y355612D01*
X31155Y355561D01*
X31153Y355509D01*
X31173Y355440D01*
X31183Y355369D01*
X31207Y355323D01*
X31221Y355273D01*
X31262Y355214D01*
X31295Y355150D01*
X31332Y355113D01*
X31362Y355071D01*
X31419Y355028D01*
X31470Y354978D01*
X31533Y354943D01*
X31559Y354924D01*
X31581Y354917D01*
X31617Y354897D01*
X33026Y354313D01*
X36813Y350526D01*
X38863Y345578D01*
X38863Y340222D01*
X36813Y335274D01*
X33026Y331487D01*
X31617Y330903D01*
X31556Y330865D01*
X31491Y330836D01*
X31452Y330801D01*
X31408Y330774D01*
X31362Y330718D01*
X31310Y330670D01*
X31285Y330624D01*
X31251Y330584D01*
X31226Y330517D01*
X31191Y330454D01*
X31182Y330403D01*
X31163Y330355D01*
X31160Y330283D01*
X31147Y330212D01*
X31155Y330161D01*
X31153Y330109D01*
X31173Y330040D01*
X31183Y329969D01*
X31207Y329923D01*
X31221Y329873D01*
X31262Y329814D01*
X31295Y329750D01*
X31332Y329713D01*
X31362Y329671D01*
X31419Y329628D01*
X31470Y329578D01*
X31533Y329543D01*
X31559Y329524D01*
X31581Y329517D01*
X31617Y329497D01*
X33026Y328913D01*
X36813Y325126D01*
X38863Y320178D01*
X38863Y314822D01*
X36813Y309874D01*
X33026Y306087D01*
X31617Y305503D01*
X31556Y305465D01*
X31491Y305436D01*
X31452Y305401D01*
X31408Y305374D01*
X31362Y305318D01*
X31310Y305270D01*
X31285Y305224D01*
X31251Y305184D01*
X31226Y305117D01*
X31191Y305054D01*
X31182Y305003D01*
X31163Y304955D01*
X31160Y304883D01*
X31147Y304812D01*
X31155Y304761D01*
X31153Y304709D01*
X31173Y304640D01*
X31183Y304569D01*
X31207Y304523D01*
X31221Y304473D01*
X31262Y304414D01*
X31295Y304350D01*
X31332Y304313D01*
X31362Y304271D01*
X31419Y304228D01*
X31470Y304178D01*
X31533Y304143D01*
X31559Y304124D01*
X31581Y304117D01*
X31617Y304097D01*
X33026Y303513D01*
X36813Y299726D01*
X38863Y294778D01*
X38863Y289422D01*
X36813Y284474D01*
X33026Y280687D01*
X31617Y280103D01*
X31556Y280065D01*
X31491Y280036D01*
X31452Y280001D01*
X31408Y279974D01*
X31362Y279918D01*
X31310Y279870D01*
X31285Y279824D01*
X31251Y279784D01*
X31226Y279717D01*
X31191Y279654D01*
X31182Y279603D01*
X31163Y279555D01*
X31160Y279483D01*
X31147Y279412D01*
X31155Y279361D01*
X31153Y279309D01*
X31173Y279240D01*
X31183Y279169D01*
X31207Y279123D01*
X31221Y279073D01*
X31262Y279014D01*
X31295Y278950D01*
X31332Y278913D01*
X31362Y278871D01*
X31419Y278828D01*
X31470Y278778D01*
X31533Y278743D01*
X31559Y278724D01*
X31581Y278717D01*
X31617Y278697D01*
X33026Y278113D01*
X36813Y274326D01*
X38863Y269378D01*
X38863Y264022D01*
X36813Y259074D01*
X33026Y255287D01*
X31617Y254703D01*
X31556Y254665D01*
X31491Y254636D01*
X31452Y254601D01*
X31408Y254574D01*
X31362Y254518D01*
X31310Y254470D01*
X31285Y254424D01*
X31251Y254384D01*
X31226Y254317D01*
X31191Y254254D01*
X31182Y254203D01*
X31163Y254155D01*
X31160Y254083D01*
X31147Y254012D01*
X31155Y253961D01*
X31153Y253909D01*
X31173Y253840D01*
X31183Y253769D01*
X31207Y253723D01*
X31221Y253673D01*
X31262Y253614D01*
X31295Y253550D01*
X31332Y253513D01*
X31362Y253471D01*
X31419Y253428D01*
X31470Y253378D01*
X31533Y253343D01*
X31559Y253324D01*
X31581Y253317D01*
X31617Y253297D01*
X33026Y252713D01*
X36813Y248926D01*
X38863Y243978D01*
X38863Y238622D01*
X36813Y233674D01*
X33026Y229887D01*
X31617Y229303D01*
X31556Y229265D01*
X31491Y229236D01*
X31452Y229201D01*
X31408Y229174D01*
X31362Y229118D01*
X31310Y229070D01*
X31285Y229024D01*
X31251Y228984D01*
X31226Y228917D01*
X31191Y228854D01*
X31182Y228803D01*
X31163Y228755D01*
X31160Y228683D01*
X31147Y228612D01*
X31155Y228561D01*
X31153Y228509D01*
X31173Y228440D01*
X31183Y228369D01*
X31207Y228323D01*
X31221Y228273D01*
X31262Y228214D01*
X31295Y228150D01*
X31332Y228113D01*
X31362Y228071D01*
X31419Y228028D01*
X31470Y227978D01*
X31533Y227943D01*
X31559Y227924D01*
X31581Y227917D01*
X31617Y227897D01*
X33026Y227313D01*
X36813Y223526D01*
X38863Y218578D01*
X38863Y213222D01*
X36813Y208274D01*
X33026Y204487D01*
X31617Y203903D01*
X31556Y203865D01*
X31491Y203836D01*
X31452Y203801D01*
X31408Y203774D01*
X31362Y203718D01*
X31310Y203670D01*
X31285Y203624D01*
X31251Y203584D01*
X31226Y203517D01*
X31191Y203454D01*
X31182Y203403D01*
X31163Y203355D01*
X31160Y203283D01*
X31147Y203212D01*
X31155Y203161D01*
X31153Y203109D01*
X31173Y203040D01*
X31183Y202969D01*
X31207Y202923D01*
X31221Y202873D01*
X31262Y202814D01*
X31295Y202750D01*
X31332Y202713D01*
X31362Y202671D01*
X31419Y202628D01*
X31470Y202578D01*
X31533Y202543D01*
X31559Y202524D01*
X31581Y202517D01*
X31617Y202497D01*
X33026Y201913D01*
X36813Y198126D01*
X38863Y193178D01*
X38863Y187822D01*
X36813Y182874D01*
X33026Y179087D01*
X29640Y177684D01*
X29554Y177631D01*
X29465Y177583D01*
X29450Y177566D01*
X29431Y177555D01*
X29367Y177477D01*
X29298Y177403D01*
X29289Y177382D01*
X29274Y177365D01*
X29238Y177271D01*
X29196Y177178D01*
X29194Y177156D01*
X29186Y177136D01*
X29182Y177035D01*
X29172Y176934D01*
X29177Y176912D01*
X29176Y176890D01*
X29204Y176793D01*
X29227Y176694D01*
X29238Y176675D01*
X29244Y176654D01*
X29302Y176571D01*
X29355Y176484D01*
X29372Y176470D01*
X29385Y176452D01*
X29466Y176391D01*
X29544Y176326D01*
X29568Y176315D01*
X29582Y176305D01*
X29613Y176295D01*
X29696Y176257D01*
X29983Y176164D01*
X31657Y175311D01*
X33178Y174206D01*
X34506Y172878D01*
X35611Y171357D01*
X36464Y169683D01*
X37045Y167896D01*
X37246Y166623D01*
X26162Y166623D01*
X26142Y166620D01*
X26123Y166622D01*
X26021Y166600D01*
X25919Y166583D01*
X25902Y166574D01*
X25882Y166570D01*
X25793Y166517D01*
X25702Y166468D01*
X25688Y166454D01*
X25671Y166444D01*
X25604Y166365D01*
X25533Y166290D01*
X25524Y166272D01*
X25511Y166257D01*
X25473Y166161D01*
X25429Y166067D01*
X25427Y166047D01*
X25419Y166029D01*
X25401Y165862D01*
X25401Y165099D01*
X25399Y165099D01*
G37*
%LPD*%
%LPC*%
G36*
X115432Y9397D02*
X115432Y9397D01*
X110484Y11447D01*
X106697Y15234D01*
X104647Y20182D01*
X104647Y25538D01*
X106697Y30486D01*
X110484Y34273D01*
X113870Y35676D01*
X113956Y35729D01*
X114045Y35777D01*
X114060Y35794D01*
X114079Y35805D01*
X114143Y35883D01*
X114212Y35957D01*
X114221Y35978D01*
X114236Y35995D01*
X114272Y36089D01*
X114314Y36182D01*
X114316Y36204D01*
X114324Y36224D01*
X114328Y36325D01*
X114338Y36426D01*
X114333Y36448D01*
X114334Y36470D01*
X114306Y36567D01*
X114283Y36666D01*
X114272Y36685D01*
X114266Y36706D01*
X114208Y36789D01*
X114155Y36876D01*
X114138Y36890D01*
X114125Y36908D01*
X114044Y36969D01*
X113966Y37034D01*
X113942Y37045D01*
X113928Y37055D01*
X113897Y37065D01*
X113814Y37103D01*
X113527Y37196D01*
X111853Y38049D01*
X110332Y39154D01*
X109004Y40482D01*
X107899Y42003D01*
X107046Y43677D01*
X106465Y45464D01*
X106264Y46737D01*
X117348Y46737D01*
X117368Y46740D01*
X117387Y46738D01*
X117489Y46760D01*
X117591Y46777D01*
X117608Y46786D01*
X117628Y46790D01*
X117717Y46843D01*
X117808Y46892D01*
X117822Y46906D01*
X117839Y46916D01*
X117906Y46995D01*
X117977Y47070D01*
X117986Y47088D01*
X117999Y47103D01*
X118037Y47199D01*
X118081Y47293D01*
X118083Y47313D01*
X118091Y47331D01*
X118109Y47498D01*
X118109Y49022D01*
X118106Y49042D01*
X118108Y49061D01*
X118086Y49163D01*
X118069Y49265D01*
X118060Y49282D01*
X118056Y49302D01*
X118003Y49391D01*
X117954Y49482D01*
X117940Y49496D01*
X117930Y49513D01*
X117851Y49580D01*
X117776Y49651D01*
X117758Y49660D01*
X117743Y49673D01*
X117647Y49712D01*
X117553Y49755D01*
X117533Y49757D01*
X117515Y49765D01*
X117348Y49783D01*
X106264Y49783D01*
X106465Y51056D01*
X107046Y52843D01*
X107899Y54517D01*
X109004Y56038D01*
X110332Y57366D01*
X111853Y58471D01*
X113527Y59324D01*
X113814Y59417D01*
X113904Y59464D01*
X113996Y59505D01*
X114012Y59520D01*
X114032Y59530D01*
X114103Y59603D01*
X114177Y59671D01*
X114188Y59691D01*
X114203Y59707D01*
X114247Y59798D01*
X114296Y59887D01*
X114300Y59909D01*
X114309Y59929D01*
X114322Y60029D01*
X114340Y60129D01*
X114336Y60151D01*
X114339Y60173D01*
X114319Y60272D01*
X114304Y60372D01*
X114294Y60392D01*
X114289Y60414D01*
X114238Y60501D01*
X114192Y60591D01*
X114176Y60607D01*
X114165Y60626D01*
X114089Y60693D01*
X114017Y60764D01*
X113993Y60777D01*
X113980Y60788D01*
X113950Y60800D01*
X113870Y60844D01*
X110484Y62247D01*
X106697Y66034D01*
X104647Y70982D01*
X104647Y76338D01*
X106697Y81286D01*
X110484Y85073D01*
X111893Y85657D01*
X111954Y85695D01*
X112019Y85724D01*
X112058Y85759D01*
X112102Y85786D01*
X112148Y85842D01*
X112200Y85890D01*
X112225Y85936D01*
X112259Y85976D01*
X112284Y86043D01*
X112319Y86106D01*
X112328Y86157D01*
X112347Y86205D01*
X112350Y86277D01*
X112363Y86348D01*
X112355Y86399D01*
X112357Y86451D01*
X112337Y86520D01*
X112327Y86591D01*
X112303Y86637D01*
X112289Y86687D01*
X112248Y86746D01*
X112215Y86810D01*
X112178Y86847D01*
X112148Y86889D01*
X112091Y86932D01*
X112040Y86982D01*
X111977Y87017D01*
X111951Y87036D01*
X111929Y87043D01*
X111893Y87063D01*
X110484Y87647D01*
X106697Y91434D01*
X104647Y96382D01*
X104647Y101738D01*
X106697Y106686D01*
X110484Y110473D01*
X115432Y112523D01*
X120788Y112523D01*
X125736Y110473D01*
X129523Y106686D01*
X130440Y104472D01*
X130478Y104411D01*
X130507Y104346D01*
X130542Y104308D01*
X130570Y104263D01*
X130625Y104218D01*
X130673Y104165D01*
X130719Y104140D01*
X130759Y104107D01*
X130826Y104081D01*
X130889Y104046D01*
X130940Y104037D01*
X130989Y104018D01*
X131060Y104015D01*
X131131Y104003D01*
X131183Y104010D01*
X131235Y104008D01*
X131303Y104028D01*
X131374Y104038D01*
X131421Y104062D01*
X131471Y104076D01*
X131530Y104117D01*
X131594Y104150D01*
X131630Y104187D01*
X131673Y104217D01*
X131716Y104274D01*
X131766Y104325D01*
X131800Y104388D01*
X131820Y104414D01*
X131827Y104436D01*
X131847Y104472D01*
X132617Y106333D01*
X133380Y107096D01*
X133428Y107162D01*
X133432Y107167D01*
X133434Y107170D01*
X133493Y107239D01*
X133505Y107269D01*
X133524Y107295D01*
X133551Y107382D01*
X133585Y107467D01*
X133589Y107508D01*
X133596Y107531D01*
X133595Y107563D01*
X133603Y107634D01*
X133603Y260666D01*
X133589Y260756D01*
X133581Y260847D01*
X133569Y260877D01*
X133564Y260909D01*
X133521Y260989D01*
X133485Y261073D01*
X133459Y261105D01*
X133448Y261126D01*
X133425Y261148D01*
X133380Y261204D01*
X132617Y261967D01*
X131345Y265038D01*
X131345Y268362D01*
X132617Y271433D01*
X134967Y273783D01*
X138038Y275055D01*
X141362Y275055D01*
X144433Y273783D01*
X146783Y271433D01*
X148055Y268362D01*
X148055Y265038D01*
X146783Y261967D01*
X146020Y261204D01*
X145967Y261130D01*
X145907Y261061D01*
X145895Y261031D01*
X145876Y261005D01*
X145849Y260918D01*
X145815Y260833D01*
X145811Y260792D01*
X145804Y260769D01*
X145805Y260737D01*
X145797Y260666D01*
X145797Y107634D01*
X145811Y107544D01*
X145819Y107453D01*
X145831Y107423D01*
X145836Y107391D01*
X145879Y107310D01*
X145915Y107227D01*
X145941Y107195D01*
X145952Y107174D01*
X145975Y107152D01*
X146020Y107096D01*
X146783Y106333D01*
X148055Y103262D01*
X148055Y99938D01*
X146783Y96867D01*
X144433Y94517D01*
X141362Y93245D01*
X138038Y93245D01*
X134967Y94517D01*
X132826Y96658D01*
X132789Y96685D01*
X132758Y96719D01*
X132690Y96756D01*
X132627Y96802D01*
X132583Y96815D01*
X132543Y96837D01*
X132466Y96851D01*
X132392Y96874D01*
X132346Y96873D01*
X132301Y96881D01*
X132223Y96870D01*
X132146Y96868D01*
X132103Y96852D01*
X132057Y96845D01*
X131988Y96810D01*
X131915Y96783D01*
X131879Y96755D01*
X131838Y96734D01*
X131783Y96678D01*
X131723Y96630D01*
X131698Y96591D01*
X131666Y96558D01*
X131600Y96438D01*
X131590Y96423D01*
X131588Y96418D01*
X131585Y96411D01*
X129523Y91434D01*
X125736Y87647D01*
X124327Y87063D01*
X124266Y87026D01*
X124201Y86996D01*
X124162Y86961D01*
X124118Y86934D01*
X124072Y86878D01*
X124020Y86830D01*
X123995Y86784D01*
X123961Y86744D01*
X123936Y86677D01*
X123901Y86614D01*
X123892Y86563D01*
X123873Y86515D01*
X123870Y86443D01*
X123857Y86372D01*
X123865Y86321D01*
X123863Y86269D01*
X123883Y86200D01*
X123893Y86129D01*
X123917Y86083D01*
X123931Y86033D01*
X123972Y85974D01*
X124005Y85910D01*
X124042Y85873D01*
X124072Y85831D01*
X124129Y85788D01*
X124180Y85738D01*
X124243Y85703D01*
X124269Y85684D01*
X124291Y85677D01*
X124327Y85657D01*
X125736Y85073D01*
X129523Y81286D01*
X131573Y76338D01*
X131573Y70982D01*
X129523Y66034D01*
X125736Y62247D01*
X122350Y60844D01*
X122264Y60791D01*
X122175Y60743D01*
X122160Y60726D01*
X122141Y60715D01*
X122077Y60637D01*
X122008Y60563D01*
X121999Y60542D01*
X121984Y60525D01*
X121948Y60431D01*
X121906Y60338D01*
X121904Y60316D01*
X121896Y60296D01*
X121892Y60195D01*
X121882Y60094D01*
X121887Y60072D01*
X121886Y60050D01*
X121914Y59953D01*
X121937Y59854D01*
X121948Y59835D01*
X121954Y59814D01*
X122012Y59731D01*
X122065Y59644D01*
X122082Y59630D01*
X122095Y59612D01*
X122176Y59551D01*
X122254Y59486D01*
X122278Y59475D01*
X122292Y59465D01*
X122323Y59455D01*
X122406Y59417D01*
X122693Y59324D01*
X124367Y58471D01*
X125888Y57366D01*
X127216Y56038D01*
X128321Y54517D01*
X129174Y52843D01*
X129755Y51056D01*
X129956Y49783D01*
X118872Y49783D01*
X118852Y49780D01*
X118833Y49782D01*
X118731Y49760D01*
X118629Y49743D01*
X118612Y49734D01*
X118592Y49730D01*
X118503Y49677D01*
X118412Y49628D01*
X118398Y49614D01*
X118381Y49604D01*
X118314Y49525D01*
X118243Y49450D01*
X118234Y49432D01*
X118221Y49417D01*
X118183Y49321D01*
X118139Y49227D01*
X118137Y49207D01*
X118129Y49189D01*
X118111Y49022D01*
X118111Y47498D01*
X118114Y47478D01*
X118112Y47459D01*
X118134Y47357D01*
X118151Y47255D01*
X118160Y47238D01*
X118164Y47218D01*
X118217Y47129D01*
X118266Y47038D01*
X118280Y47024D01*
X118290Y47007D01*
X118369Y46940D01*
X118444Y46869D01*
X118462Y46860D01*
X118477Y46847D01*
X118573Y46808D01*
X118667Y46765D01*
X118687Y46763D01*
X118705Y46755D01*
X118872Y46737D01*
X129956Y46737D01*
X129755Y45464D01*
X129174Y43677D01*
X128321Y42003D01*
X127216Y40482D01*
X125888Y39154D01*
X124367Y38049D01*
X122693Y37196D01*
X122406Y37103D01*
X122316Y37056D01*
X122224Y37015D01*
X122208Y37000D01*
X122188Y36990D01*
X122117Y36917D01*
X122043Y36849D01*
X122032Y36829D01*
X122017Y36813D01*
X121973Y36722D01*
X121924Y36633D01*
X121920Y36611D01*
X121911Y36591D01*
X121898Y36491D01*
X121880Y36391D01*
X121884Y36369D01*
X121881Y36347D01*
X121901Y36248D01*
X121916Y36148D01*
X121926Y36128D01*
X121931Y36106D01*
X121982Y36019D01*
X122028Y35929D01*
X122044Y35913D01*
X122055Y35894D01*
X122131Y35827D01*
X122203Y35756D01*
X122227Y35743D01*
X122240Y35732D01*
X122270Y35720D01*
X122350Y35676D01*
X125736Y34273D01*
X129523Y30486D01*
X131573Y25538D01*
X131573Y20182D01*
X129523Y15234D01*
X125736Y11447D01*
X120788Y9397D01*
X115432Y9397D01*
G37*
%LPD*%
%LPC*%
G36*
X163438Y144045D02*
X163438Y144045D01*
X160367Y145317D01*
X158017Y147667D01*
X156745Y150738D01*
X156745Y154062D01*
X158017Y157133D01*
X158780Y157896D01*
X158833Y157970D01*
X158893Y158039D01*
X158905Y158069D01*
X158924Y158095D01*
X158951Y158182D01*
X158985Y158267D01*
X158989Y158308D01*
X158996Y158331D01*
X158995Y158363D01*
X159003Y158434D01*
X159003Y438466D01*
X158989Y438556D01*
X158981Y438647D01*
X158969Y438677D01*
X158964Y438709D01*
X158921Y438789D01*
X158885Y438873D01*
X158859Y438905D01*
X158848Y438926D01*
X158825Y438948D01*
X158780Y439004D01*
X158017Y439767D01*
X156745Y442838D01*
X156745Y446162D01*
X158017Y449233D01*
X160367Y451583D01*
X163438Y452855D01*
X166762Y452855D01*
X169833Y451583D01*
X172183Y449233D01*
X173455Y446162D01*
X173455Y442838D01*
X172183Y439767D01*
X171420Y439004D01*
X171367Y438930D01*
X171307Y438861D01*
X171295Y438831D01*
X171276Y438805D01*
X171249Y438718D01*
X171215Y438633D01*
X171211Y438592D01*
X171204Y438569D01*
X171205Y438537D01*
X171197Y438466D01*
X171197Y158434D01*
X171211Y158344D01*
X171219Y158253D01*
X171231Y158223D01*
X171236Y158191D01*
X171279Y158111D01*
X171315Y158027D01*
X171341Y157995D01*
X171352Y157974D01*
X171375Y157952D01*
X171420Y157896D01*
X172183Y157133D01*
X173455Y154062D01*
X173455Y150738D01*
X172183Y147667D01*
X169833Y145317D01*
X166762Y144045D01*
X163438Y144045D01*
G37*
%LPD*%
%LPC*%
G36*
X366638Y80545D02*
X366638Y80545D01*
X363567Y81817D01*
X361217Y84167D01*
X359945Y87238D01*
X359945Y90562D01*
X361217Y93633D01*
X361980Y94396D01*
X362033Y94470D01*
X362093Y94539D01*
X362105Y94569D01*
X362124Y94595D01*
X362151Y94682D01*
X362185Y94767D01*
X362189Y94808D01*
X362196Y94831D01*
X362195Y94863D01*
X362203Y94934D01*
X362203Y107250D01*
X362192Y107321D01*
X362190Y107393D01*
X362172Y107441D01*
X362164Y107493D01*
X362130Y107556D01*
X362105Y107624D01*
X362073Y107664D01*
X362048Y107710D01*
X361997Y107760D01*
X361952Y107816D01*
X361908Y107844D01*
X361870Y107880D01*
X361805Y107910D01*
X361745Y107949D01*
X361694Y107961D01*
X361647Y107983D01*
X361576Y107991D01*
X361506Y108009D01*
X361454Y108005D01*
X361403Y108010D01*
X361332Y107995D01*
X361261Y107989D01*
X361213Y107969D01*
X361162Y107958D01*
X361101Y107921D01*
X361035Y107893D01*
X360979Y107848D01*
X360951Y107832D01*
X360936Y107814D01*
X360904Y107788D01*
X360333Y107217D01*
X357262Y105945D01*
X353938Y105945D01*
X350867Y107217D01*
X348517Y109567D01*
X347245Y112638D01*
X347245Y115962D01*
X348517Y119033D01*
X349280Y119796D01*
X349333Y119870D01*
X349393Y119939D01*
X349405Y119969D01*
X349424Y119995D01*
X349451Y120082D01*
X349485Y120167D01*
X349489Y120208D01*
X349496Y120231D01*
X349495Y120263D01*
X349503Y120334D01*
X349503Y159066D01*
X349489Y159156D01*
X349481Y159247D01*
X349469Y159277D01*
X349464Y159309D01*
X349421Y159389D01*
X349385Y159473D01*
X349359Y159505D01*
X349348Y159526D01*
X349325Y159548D01*
X349280Y159604D01*
X348517Y160367D01*
X347245Y163438D01*
X347245Y166762D01*
X348517Y169833D01*
X350867Y172183D01*
X353938Y173455D01*
X357262Y173455D01*
X360333Y172183D01*
X362683Y169833D01*
X363955Y166762D01*
X363955Y163438D01*
X362683Y160367D01*
X361920Y159604D01*
X361867Y159530D01*
X361807Y159461D01*
X361795Y159431D01*
X361776Y159405D01*
X361749Y159318D01*
X361715Y159233D01*
X361711Y159192D01*
X361704Y159169D01*
X361705Y159137D01*
X361697Y159066D01*
X361697Y146750D01*
X361708Y146679D01*
X361710Y146607D01*
X361728Y146559D01*
X361736Y146507D01*
X361770Y146444D01*
X361795Y146376D01*
X361827Y146336D01*
X361852Y146290D01*
X361903Y146240D01*
X361948Y146184D01*
X361992Y146156D01*
X362030Y146120D01*
X362095Y146090D01*
X362155Y146051D01*
X362206Y146039D01*
X362253Y146017D01*
X362324Y146009D01*
X362394Y145991D01*
X362446Y145995D01*
X362497Y145990D01*
X362568Y146005D01*
X362639Y146011D01*
X362687Y146031D01*
X362738Y146042D01*
X362799Y146079D01*
X362865Y146107D01*
X362921Y146152D01*
X362949Y146168D01*
X362964Y146186D01*
X362996Y146212D01*
X363567Y146783D01*
X366638Y148055D01*
X369962Y148055D01*
X373033Y146783D01*
X375383Y144433D01*
X376655Y141362D01*
X376655Y138038D01*
X375461Y135155D01*
X375444Y135085D01*
X375419Y135018D01*
X375416Y134966D01*
X375404Y134916D01*
X375411Y134844D01*
X375408Y134773D01*
X375423Y134723D01*
X375428Y134671D01*
X375457Y134605D01*
X375477Y134537D01*
X375506Y134494D01*
X375528Y134446D01*
X375576Y134393D01*
X375617Y134334D01*
X375659Y134303D01*
X375694Y134265D01*
X375757Y134230D01*
X375814Y134188D01*
X375864Y134172D01*
X375909Y134146D01*
X375980Y134134D01*
X376048Y134111D01*
X376100Y134112D01*
X376151Y134103D01*
X376222Y134113D01*
X376294Y134114D01*
X376363Y134134D01*
X376395Y134139D01*
X376416Y134149D01*
X376455Y134161D01*
X379338Y135355D01*
X380417Y135355D01*
X380507Y135369D01*
X380598Y135377D01*
X380628Y135389D01*
X380660Y135394D01*
X380741Y135437D01*
X380825Y135473D01*
X380857Y135499D01*
X380877Y135510D01*
X380900Y135533D01*
X380956Y135578D01*
X387380Y142002D01*
X387433Y142076D01*
X387493Y142146D01*
X387505Y142176D01*
X387524Y142202D01*
X387551Y142289D01*
X387585Y142374D01*
X387589Y142415D01*
X387596Y142437D01*
X387595Y142469D01*
X387603Y142541D01*
X387603Y209866D01*
X387589Y209956D01*
X387581Y210047D01*
X387569Y210077D01*
X387564Y210109D01*
X387521Y210189D01*
X387485Y210273D01*
X387459Y210305D01*
X387448Y210326D01*
X387425Y210348D01*
X387380Y210404D01*
X386617Y211167D01*
X385345Y214238D01*
X385345Y217562D01*
X386617Y220633D01*
X388967Y222983D01*
X392038Y224255D01*
X395362Y224255D01*
X398433Y222983D01*
X400783Y220633D01*
X402055Y217562D01*
X402055Y214238D01*
X400783Y211167D01*
X400020Y210404D01*
X399967Y210330D01*
X399907Y210261D01*
X399895Y210231D01*
X399876Y210205D01*
X399849Y210118D01*
X399815Y210033D01*
X399811Y209992D01*
X399804Y209969D01*
X399805Y209937D01*
X399797Y209866D01*
X399797Y138487D01*
X398869Y136246D01*
X389578Y126956D01*
X389525Y126882D01*
X389465Y126812D01*
X389453Y126782D01*
X389434Y126756D01*
X389407Y126669D01*
X389373Y126584D01*
X389369Y126543D01*
X389362Y126521D01*
X389363Y126489D01*
X389355Y126417D01*
X389355Y125338D01*
X388083Y122267D01*
X385733Y119917D01*
X382662Y118645D01*
X379338Y118645D01*
X376267Y119917D01*
X375696Y120488D01*
X375638Y120530D01*
X375586Y120580D01*
X375539Y120602D01*
X375497Y120632D01*
X375428Y120653D01*
X375363Y120683D01*
X375311Y120689D01*
X375261Y120704D01*
X375190Y120702D01*
X375119Y120710D01*
X375068Y120699D01*
X375016Y120698D01*
X374948Y120673D01*
X374878Y120658D01*
X374833Y120631D01*
X374785Y120613D01*
X374729Y120569D01*
X374667Y120532D01*
X374633Y120492D01*
X374593Y120460D01*
X374554Y120399D01*
X374507Y120345D01*
X374488Y120297D01*
X374460Y120253D01*
X374442Y120183D01*
X374415Y120117D01*
X374407Y120046D01*
X374399Y120014D01*
X374401Y119991D01*
X374397Y119950D01*
X374397Y94934D01*
X374411Y94844D01*
X374419Y94753D01*
X374431Y94723D01*
X374436Y94691D01*
X374479Y94611D01*
X374515Y94527D01*
X374541Y94495D01*
X374552Y94474D01*
X374575Y94452D01*
X374620Y94396D01*
X375383Y93633D01*
X376655Y90562D01*
X376655Y87238D01*
X375383Y84167D01*
X373033Y81817D01*
X369962Y80545D01*
X366638Y80545D01*
G37*
%LPD*%
%LPC*%
G36*
X182488Y169445D02*
X182488Y169445D01*
X179417Y170717D01*
X177067Y173067D01*
X175795Y176138D01*
X175795Y179462D01*
X177067Y182533D01*
X177830Y183296D01*
X177883Y183370D01*
X177943Y183439D01*
X177955Y183469D01*
X177974Y183495D01*
X178001Y183582D01*
X178035Y183667D01*
X178039Y183708D01*
X178046Y183730D01*
X178045Y183763D01*
X178053Y183834D01*
X178053Y397826D01*
X178039Y397916D01*
X178031Y398007D01*
X178019Y398037D01*
X178014Y398069D01*
X177971Y398149D01*
X177935Y398233D01*
X177909Y398265D01*
X177898Y398286D01*
X177875Y398308D01*
X177830Y398364D01*
X177067Y399127D01*
X175795Y402198D01*
X175795Y405522D01*
X177067Y408593D01*
X179417Y410943D01*
X182488Y412215D01*
X185812Y412215D01*
X188883Y410943D01*
X191233Y408593D01*
X192505Y405522D01*
X192505Y402198D01*
X191233Y399127D01*
X190470Y398364D01*
X190417Y398290D01*
X190357Y398221D01*
X190345Y398191D01*
X190326Y398165D01*
X190299Y398078D01*
X190265Y397993D01*
X190261Y397952D01*
X190254Y397929D01*
X190255Y397897D01*
X190247Y397826D01*
X190247Y183834D01*
X190261Y183744D01*
X190269Y183653D01*
X190281Y183623D01*
X190286Y183591D01*
X190329Y183511D01*
X190365Y183427D01*
X190391Y183394D01*
X190402Y183374D01*
X190425Y183352D01*
X190470Y183296D01*
X191233Y182533D01*
X192505Y179462D01*
X192505Y176138D01*
X191233Y173067D01*
X188883Y170717D01*
X185812Y169445D01*
X182488Y169445D01*
G37*
%LPD*%
%LPC*%
G36*
X445769Y20319D02*
X445769Y20319D01*
X445769Y21082D01*
X445766Y21102D01*
X445768Y21121D01*
X445746Y21223D01*
X445729Y21325D01*
X445720Y21342D01*
X445716Y21362D01*
X445663Y21451D01*
X445614Y21542D01*
X445600Y21556D01*
X445590Y21573D01*
X445511Y21640D01*
X445436Y21711D01*
X445418Y21720D01*
X445403Y21733D01*
X445307Y21772D01*
X445213Y21815D01*
X445193Y21817D01*
X445175Y21825D01*
X445008Y21843D01*
X433924Y21843D01*
X434125Y23116D01*
X434706Y24903D01*
X435559Y26577D01*
X436664Y28098D01*
X437992Y29426D01*
X439513Y30531D01*
X441187Y31384D01*
X441474Y31477D01*
X441564Y31524D01*
X441656Y31565D01*
X441672Y31580D01*
X441692Y31590D01*
X441763Y31663D01*
X441837Y31731D01*
X441848Y31751D01*
X441863Y31767D01*
X441907Y31858D01*
X441956Y31947D01*
X441960Y31969D01*
X441969Y31989D01*
X441982Y32089D01*
X442000Y32189D01*
X441996Y32211D01*
X441999Y32233D01*
X441979Y32332D01*
X441964Y32432D01*
X441954Y32452D01*
X441949Y32474D01*
X441898Y32561D01*
X441852Y32651D01*
X441836Y32667D01*
X441825Y32686D01*
X441749Y32753D01*
X441677Y32824D01*
X441653Y32837D01*
X441640Y32848D01*
X441610Y32860D01*
X441530Y32904D01*
X438144Y34307D01*
X434357Y38094D01*
X432307Y43042D01*
X432307Y48398D01*
X434357Y53346D01*
X438144Y57133D01*
X439553Y57717D01*
X439614Y57755D01*
X439679Y57784D01*
X439718Y57819D01*
X439762Y57846D01*
X439808Y57902D01*
X439860Y57950D01*
X439885Y57996D01*
X439919Y58036D01*
X439944Y58103D01*
X439979Y58166D01*
X439988Y58217D01*
X440007Y58265D01*
X440010Y58337D01*
X440023Y58408D01*
X440015Y58459D01*
X440017Y58511D01*
X439997Y58580D01*
X439987Y58651D01*
X439963Y58697D01*
X439949Y58747D01*
X439908Y58806D01*
X439875Y58870D01*
X439838Y58907D01*
X439808Y58949D01*
X439751Y58992D01*
X439700Y59042D01*
X439637Y59077D01*
X439611Y59096D01*
X439589Y59103D01*
X439553Y59123D01*
X438144Y59707D01*
X434357Y63494D01*
X432307Y68442D01*
X432307Y73798D01*
X434357Y78746D01*
X438144Y82533D01*
X439553Y83117D01*
X439614Y83155D01*
X439679Y83184D01*
X439718Y83219D01*
X439762Y83246D01*
X439808Y83302D01*
X439860Y83350D01*
X439885Y83396D01*
X439919Y83436D01*
X439944Y83503D01*
X439979Y83566D01*
X439988Y83617D01*
X440007Y83665D01*
X440010Y83737D01*
X440023Y83808D01*
X440015Y83859D01*
X440017Y83911D01*
X439997Y83980D01*
X439987Y84051D01*
X439963Y84097D01*
X439949Y84147D01*
X439908Y84206D01*
X439875Y84270D01*
X439838Y84307D01*
X439808Y84349D01*
X439751Y84392D01*
X439700Y84442D01*
X439637Y84477D01*
X439611Y84496D01*
X439589Y84503D01*
X439553Y84523D01*
X438144Y85107D01*
X434357Y88894D01*
X432307Y93842D01*
X432307Y99198D01*
X434357Y104146D01*
X438144Y107933D01*
X443092Y109983D01*
X448448Y109983D01*
X453396Y107933D01*
X457183Y104146D01*
X459233Y99198D01*
X459233Y93842D01*
X457183Y88894D01*
X453396Y85107D01*
X451987Y84523D01*
X451926Y84486D01*
X451861Y84456D01*
X451822Y84421D01*
X451778Y84394D01*
X451732Y84338D01*
X451680Y84290D01*
X451655Y84244D01*
X451621Y84204D01*
X451596Y84137D01*
X451561Y84074D01*
X451552Y84023D01*
X451533Y83975D01*
X451530Y83903D01*
X451517Y83832D01*
X451525Y83781D01*
X451523Y83729D01*
X451543Y83660D01*
X451553Y83589D01*
X451577Y83543D01*
X451591Y83493D01*
X451632Y83434D01*
X451665Y83370D01*
X451702Y83333D01*
X451732Y83291D01*
X451789Y83248D01*
X451840Y83198D01*
X451903Y83163D01*
X451929Y83144D01*
X451951Y83137D01*
X451987Y83117D01*
X453396Y82533D01*
X457183Y78746D01*
X459233Y73798D01*
X459233Y68442D01*
X457183Y63494D01*
X453396Y59707D01*
X451987Y59123D01*
X451926Y59086D01*
X451861Y59056D01*
X451822Y59021D01*
X451778Y58994D01*
X451732Y58938D01*
X451680Y58890D01*
X451655Y58844D01*
X451621Y58804D01*
X451596Y58737D01*
X451561Y58674D01*
X451552Y58623D01*
X451533Y58575D01*
X451530Y58503D01*
X451517Y58432D01*
X451525Y58381D01*
X451523Y58329D01*
X451543Y58260D01*
X451553Y58189D01*
X451577Y58143D01*
X451591Y58093D01*
X451632Y58034D01*
X451665Y57970D01*
X451702Y57933D01*
X451732Y57891D01*
X451789Y57848D01*
X451840Y57798D01*
X451903Y57763D01*
X451929Y57744D01*
X451951Y57737D01*
X451987Y57717D01*
X453396Y57133D01*
X457183Y53346D01*
X459233Y48398D01*
X459233Y43042D01*
X457183Y38094D01*
X453396Y34307D01*
X450010Y32904D01*
X449924Y32851D01*
X449835Y32803D01*
X449820Y32786D01*
X449801Y32775D01*
X449737Y32697D01*
X449668Y32623D01*
X449659Y32602D01*
X449644Y32585D01*
X449608Y32491D01*
X449566Y32398D01*
X449564Y32376D01*
X449556Y32356D01*
X449552Y32255D01*
X449542Y32154D01*
X449547Y32132D01*
X449546Y32110D01*
X449574Y32013D01*
X449597Y31914D01*
X449608Y31895D01*
X449614Y31874D01*
X449672Y31791D01*
X449725Y31704D01*
X449742Y31690D01*
X449755Y31672D01*
X449836Y31611D01*
X449914Y31546D01*
X449938Y31535D01*
X449952Y31525D01*
X449983Y31515D01*
X450066Y31477D01*
X450353Y31384D01*
X452027Y30531D01*
X453548Y29426D01*
X454876Y28098D01*
X455981Y26577D01*
X456834Y24903D01*
X457415Y23116D01*
X457616Y21843D01*
X446532Y21843D01*
X446512Y21840D01*
X446493Y21842D01*
X446391Y21820D01*
X446289Y21803D01*
X446272Y21794D01*
X446252Y21790D01*
X446163Y21737D01*
X446072Y21688D01*
X446058Y21674D01*
X446041Y21664D01*
X445974Y21585D01*
X445903Y21510D01*
X445894Y21492D01*
X445881Y21477D01*
X445843Y21381D01*
X445799Y21287D01*
X445797Y21267D01*
X445789Y21249D01*
X445771Y21082D01*
X445771Y20319D01*
X445769Y20319D01*
G37*
%LPD*%
%LPC*%
G36*
X112638Y182145D02*
X112638Y182145D01*
X109567Y183417D01*
X107217Y185767D01*
X105945Y188838D01*
X105945Y192162D01*
X107217Y195233D01*
X107980Y195996D01*
X108033Y196070D01*
X108093Y196139D01*
X108105Y196169D01*
X108124Y196195D01*
X108151Y196282D01*
X108185Y196367D01*
X108189Y196408D01*
X108196Y196431D01*
X108195Y196463D01*
X108203Y196534D01*
X108203Y273366D01*
X108189Y273456D01*
X108181Y273547D01*
X108169Y273577D01*
X108164Y273609D01*
X108121Y273689D01*
X108085Y273773D01*
X108059Y273805D01*
X108048Y273826D01*
X108025Y273848D01*
X107980Y273904D01*
X107217Y274667D01*
X105945Y277738D01*
X105945Y281062D01*
X107217Y284133D01*
X109567Y286483D01*
X112638Y287755D01*
X115962Y287755D01*
X119033Y286483D01*
X121383Y284133D01*
X122655Y281062D01*
X122655Y277738D01*
X121383Y274667D01*
X120620Y273904D01*
X120567Y273830D01*
X120507Y273761D01*
X120495Y273731D01*
X120476Y273705D01*
X120449Y273618D01*
X120415Y273533D01*
X120411Y273492D01*
X120404Y273469D01*
X120405Y273437D01*
X120397Y273366D01*
X120397Y196534D01*
X120411Y196444D01*
X120419Y196353D01*
X120431Y196323D01*
X120436Y196291D01*
X120479Y196211D01*
X120515Y196127D01*
X120541Y196095D01*
X120552Y196074D01*
X120575Y196052D01*
X120620Y195996D01*
X121383Y195233D01*
X122655Y192162D01*
X122655Y188838D01*
X121383Y185767D01*
X119033Y183417D01*
X115962Y182145D01*
X112638Y182145D01*
G37*
%LPD*%
%LPC*%
G36*
X25399Y25399D02*
X25399Y25399D01*
X25399Y26162D01*
X25397Y26173D01*
X25398Y26180D01*
X25397Y26188D01*
X25398Y26201D01*
X25376Y26303D01*
X25359Y26405D01*
X25350Y26422D01*
X25346Y26442D01*
X25293Y26531D01*
X25244Y26622D01*
X25230Y26636D01*
X25220Y26653D01*
X25141Y26720D01*
X25066Y26791D01*
X25048Y26800D01*
X25033Y26813D01*
X24937Y26852D01*
X24843Y26895D01*
X24823Y26897D01*
X24805Y26905D01*
X24638Y26923D01*
X13554Y26923D01*
X13755Y28196D01*
X14336Y29983D01*
X15189Y31657D01*
X16294Y33178D01*
X17622Y34506D01*
X19143Y35611D01*
X20817Y36464D01*
X21104Y36557D01*
X21194Y36604D01*
X21286Y36645D01*
X21302Y36660D01*
X21322Y36670D01*
X21393Y36743D01*
X21467Y36811D01*
X21478Y36831D01*
X21493Y36847D01*
X21537Y36937D01*
X21586Y37027D01*
X21590Y37049D01*
X21599Y37069D01*
X21612Y37169D01*
X21630Y37269D01*
X21626Y37291D01*
X21629Y37313D01*
X21609Y37412D01*
X21594Y37512D01*
X21584Y37532D01*
X21579Y37554D01*
X21528Y37641D01*
X21482Y37731D01*
X21466Y37747D01*
X21455Y37766D01*
X21379Y37833D01*
X21307Y37904D01*
X21283Y37917D01*
X21270Y37928D01*
X21240Y37940D01*
X21160Y37984D01*
X17774Y39387D01*
X13987Y43174D01*
X11937Y48122D01*
X11937Y53478D01*
X13987Y58426D01*
X17774Y62213D01*
X19183Y62797D01*
X19244Y62834D01*
X19309Y62864D01*
X19348Y62899D01*
X19392Y62926D01*
X19438Y62982D01*
X19490Y63030D01*
X19515Y63076D01*
X19549Y63116D01*
X19574Y63183D01*
X19609Y63246D01*
X19618Y63297D01*
X19637Y63345D01*
X19640Y63417D01*
X19653Y63488D01*
X19645Y63539D01*
X19647Y63591D01*
X19627Y63660D01*
X19617Y63731D01*
X19593Y63777D01*
X19579Y63827D01*
X19538Y63886D01*
X19505Y63950D01*
X19468Y63987D01*
X19438Y64029D01*
X19381Y64072D01*
X19330Y64122D01*
X19267Y64157D01*
X19241Y64176D01*
X19219Y64183D01*
X19183Y64203D01*
X17774Y64787D01*
X13987Y68574D01*
X11937Y73522D01*
X11937Y78878D01*
X13987Y83826D01*
X17774Y87613D01*
X22722Y89663D01*
X28078Y89663D01*
X33026Y87613D01*
X36813Y83826D01*
X38863Y78878D01*
X38863Y73522D01*
X36813Y68574D01*
X33026Y64787D01*
X31617Y64203D01*
X31556Y64165D01*
X31491Y64136D01*
X31452Y64101D01*
X31408Y64074D01*
X31362Y64018D01*
X31310Y63970D01*
X31285Y63924D01*
X31251Y63884D01*
X31226Y63817D01*
X31191Y63754D01*
X31182Y63703D01*
X31163Y63655D01*
X31160Y63583D01*
X31147Y63512D01*
X31155Y63461D01*
X31153Y63409D01*
X31173Y63340D01*
X31183Y63269D01*
X31207Y63223D01*
X31221Y63173D01*
X31262Y63114D01*
X31295Y63050D01*
X31332Y63013D01*
X31362Y62971D01*
X31419Y62928D01*
X31470Y62878D01*
X31533Y62843D01*
X31559Y62824D01*
X31581Y62817D01*
X31617Y62797D01*
X33026Y62213D01*
X36813Y58426D01*
X38863Y53478D01*
X38863Y48122D01*
X36813Y43174D01*
X33026Y39387D01*
X29640Y37984D01*
X29554Y37931D01*
X29465Y37883D01*
X29450Y37866D01*
X29431Y37855D01*
X29367Y37777D01*
X29298Y37703D01*
X29289Y37682D01*
X29274Y37665D01*
X29238Y37571D01*
X29196Y37478D01*
X29194Y37456D01*
X29186Y37436D01*
X29182Y37335D01*
X29172Y37234D01*
X29177Y37212D01*
X29176Y37190D01*
X29204Y37093D01*
X29227Y36994D01*
X29238Y36975D01*
X29244Y36954D01*
X29302Y36871D01*
X29355Y36784D01*
X29372Y36770D01*
X29385Y36752D01*
X29466Y36691D01*
X29544Y36626D01*
X29568Y36615D01*
X29582Y36605D01*
X29613Y36595D01*
X29696Y36557D01*
X29983Y36464D01*
X31657Y35611D01*
X33178Y34506D01*
X34506Y33178D01*
X35611Y31657D01*
X36464Y29983D01*
X37045Y28196D01*
X37246Y26923D01*
X26162Y26923D01*
X26142Y26920D01*
X26123Y26922D01*
X26021Y26900D01*
X25919Y26883D01*
X25902Y26874D01*
X25882Y26870D01*
X25793Y26817D01*
X25702Y26768D01*
X25688Y26754D01*
X25671Y26744D01*
X25604Y26665D01*
X25533Y26590D01*
X25524Y26572D01*
X25511Y26557D01*
X25473Y26461D01*
X25429Y26367D01*
X25427Y26347D01*
X25419Y26329D01*
X25401Y26162D01*
X25401Y25399D01*
X25399Y25399D01*
G37*
%LPD*%
G36*
X234507Y421946D02*
X234507Y421946D01*
X234533Y421945D01*
X234627Y421972D01*
X234722Y421993D01*
X234744Y422006D01*
X234769Y422014D01*
X234849Y422069D01*
X234933Y422119D01*
X234950Y422139D01*
X234971Y422154D01*
X235030Y422232D01*
X235093Y422306D01*
X235103Y422330D01*
X235118Y422351D01*
X235148Y422444D01*
X235185Y422534D01*
X235188Y422567D01*
X235194Y422585D01*
X235194Y422618D01*
X235203Y422701D01*
X235203Y433013D01*
X236131Y435254D01*
X268225Y467347D01*
X268293Y467441D01*
X268363Y467536D01*
X268365Y467542D01*
X268369Y467547D01*
X268403Y467658D01*
X268439Y467770D01*
X268439Y467776D01*
X268441Y467782D01*
X268438Y467899D01*
X268437Y468016D01*
X268435Y468023D01*
X268435Y468028D01*
X268428Y468045D01*
X268390Y468177D01*
X267854Y469470D01*
X267801Y469556D01*
X267753Y469645D01*
X267736Y469660D01*
X267725Y469679D01*
X267647Y469743D01*
X267573Y469812D01*
X267552Y469821D01*
X267535Y469836D01*
X267441Y469872D01*
X267348Y469914D01*
X267326Y469916D01*
X267306Y469924D01*
X267205Y469928D01*
X267104Y469938D01*
X267082Y469933D01*
X267060Y469934D01*
X266963Y469906D01*
X266864Y469883D01*
X266845Y469872D01*
X266824Y469866D01*
X266741Y469808D01*
X266654Y469755D01*
X266640Y469738D01*
X266622Y469725D01*
X266561Y469644D01*
X266496Y469566D01*
X266485Y469542D01*
X266475Y469528D01*
X266465Y469497D01*
X266427Y469414D01*
X266334Y469127D01*
X265481Y467453D01*
X264376Y465932D01*
X263048Y464604D01*
X261527Y463499D01*
X259853Y462646D01*
X258066Y462065D01*
X256793Y461864D01*
X256793Y472948D01*
X256790Y472968D01*
X256792Y472987D01*
X256770Y473089D01*
X256753Y473191D01*
X256744Y473208D01*
X256740Y473228D01*
X256687Y473317D01*
X256638Y473408D01*
X256624Y473422D01*
X256614Y473439D01*
X256535Y473506D01*
X256460Y473577D01*
X256442Y473586D01*
X256427Y473599D01*
X256331Y473637D01*
X256237Y473681D01*
X256217Y473683D01*
X256199Y473691D01*
X256032Y473709D01*
X254508Y473709D01*
X254488Y473706D01*
X254469Y473708D01*
X254367Y473686D01*
X254265Y473669D01*
X254248Y473660D01*
X254228Y473656D01*
X254139Y473603D01*
X254048Y473554D01*
X254034Y473540D01*
X254017Y473530D01*
X253950Y473451D01*
X253879Y473376D01*
X253870Y473358D01*
X253857Y473343D01*
X253818Y473247D01*
X253775Y473153D01*
X253773Y473133D01*
X253765Y473115D01*
X253747Y472948D01*
X253747Y461864D01*
X252474Y462065D01*
X250687Y462646D01*
X249013Y463499D01*
X247492Y464604D01*
X246164Y465932D01*
X245059Y467453D01*
X244206Y469127D01*
X244113Y469414D01*
X244066Y469504D01*
X244025Y469596D01*
X244010Y469612D01*
X244000Y469632D01*
X243927Y469703D01*
X243859Y469777D01*
X243839Y469788D01*
X243823Y469803D01*
X243732Y469847D01*
X243643Y469896D01*
X243621Y469900D01*
X243601Y469909D01*
X243501Y469922D01*
X243401Y469940D01*
X243379Y469936D01*
X243357Y469939D01*
X243258Y469919D01*
X243158Y469904D01*
X243138Y469894D01*
X243116Y469889D01*
X243029Y469838D01*
X242939Y469792D01*
X242923Y469776D01*
X242904Y469765D01*
X242837Y469689D01*
X242766Y469617D01*
X242753Y469593D01*
X242742Y469580D01*
X242730Y469550D01*
X242686Y469470D01*
X241283Y466084D01*
X237496Y462297D01*
X232548Y460247D01*
X227192Y460247D01*
X222244Y462297D01*
X218457Y466084D01*
X217873Y467493D01*
X217836Y467554D01*
X217806Y467619D01*
X217771Y467658D01*
X217744Y467702D01*
X217688Y467748D01*
X217640Y467800D01*
X217594Y467825D01*
X217554Y467859D01*
X217487Y467884D01*
X217424Y467919D01*
X217373Y467928D01*
X217325Y467947D01*
X217253Y467950D01*
X217182Y467963D01*
X217131Y467955D01*
X217079Y467957D01*
X217010Y467937D01*
X216939Y467927D01*
X216893Y467903D01*
X216843Y467889D01*
X216784Y467848D01*
X216720Y467815D01*
X216683Y467778D01*
X216641Y467748D01*
X216598Y467691D01*
X216548Y467640D01*
X216513Y467577D01*
X216494Y467551D01*
X216487Y467529D01*
X216467Y467493D01*
X215883Y466084D01*
X212096Y462297D01*
X211037Y461858D01*
X210937Y461796D01*
X210837Y461737D01*
X210833Y461732D01*
X210828Y461728D01*
X210753Y461638D01*
X210677Y461550D01*
X210675Y461544D01*
X210671Y461539D01*
X210629Y461431D01*
X210585Y461321D01*
X210584Y461314D01*
X210583Y461309D01*
X210582Y461291D01*
X210567Y461155D01*
X210567Y433371D01*
X210581Y433281D01*
X210589Y433190D01*
X210601Y433160D01*
X210606Y433128D01*
X210649Y433047D01*
X210685Y432963D01*
X210711Y432931D01*
X210722Y432911D01*
X210745Y432888D01*
X210790Y432832D01*
X213122Y430500D01*
X213196Y430447D01*
X213266Y430387D01*
X213296Y430375D01*
X213322Y430356D01*
X213409Y430329D01*
X213494Y430295D01*
X213535Y430291D01*
X213557Y430284D01*
X213589Y430285D01*
X213661Y430277D01*
X225235Y430277D01*
X229343Y428575D01*
X232487Y425431D01*
X233739Y422410D01*
X233790Y422327D01*
X233836Y422241D01*
X233854Y422223D01*
X233868Y422201D01*
X233944Y422138D01*
X234014Y422071D01*
X234038Y422060D01*
X234058Y422044D01*
X234149Y422009D01*
X234237Y421968D01*
X234263Y421965D01*
X234287Y421956D01*
X234385Y421951D01*
X234481Y421941D01*
X234507Y421946D01*
G37*
%LPC*%
G36*
X74538Y42445D02*
X74538Y42445D01*
X71467Y43717D01*
X69117Y46067D01*
X67845Y49138D01*
X67845Y52462D01*
X69117Y55533D01*
X69880Y56296D01*
X69933Y56370D01*
X69993Y56439D01*
X70005Y56469D01*
X70024Y56495D01*
X70051Y56582D01*
X70085Y56667D01*
X70089Y56708D01*
X70096Y56731D01*
X70095Y56763D01*
X70103Y56834D01*
X70103Y120966D01*
X70089Y121056D01*
X70081Y121147D01*
X70069Y121177D01*
X70064Y121209D01*
X70021Y121289D01*
X69985Y121373D01*
X69959Y121405D01*
X69948Y121426D01*
X69925Y121448D01*
X69880Y121504D01*
X69117Y122267D01*
X67845Y125338D01*
X67845Y128662D01*
X69117Y131733D01*
X71467Y134083D01*
X74538Y135355D01*
X77862Y135355D01*
X80933Y134083D01*
X83283Y131733D01*
X84555Y128662D01*
X84555Y125338D01*
X83283Y122267D01*
X82520Y121504D01*
X82467Y121430D01*
X82407Y121361D01*
X82395Y121331D01*
X82376Y121305D01*
X82349Y121218D01*
X82315Y121133D01*
X82311Y121092D01*
X82304Y121069D01*
X82305Y121037D01*
X82297Y120966D01*
X82297Y56834D01*
X82311Y56744D01*
X82319Y56653D01*
X82331Y56623D01*
X82336Y56591D01*
X82379Y56510D01*
X82415Y56427D01*
X82441Y56395D01*
X82452Y56374D01*
X82475Y56352D01*
X82520Y56296D01*
X83283Y55533D01*
X84555Y52462D01*
X84555Y49138D01*
X83283Y46067D01*
X80933Y43717D01*
X77862Y42445D01*
X74538Y42445D01*
G37*
%LPD*%
%LPC*%
G36*
X403722Y75437D02*
X403722Y75437D01*
X398774Y77487D01*
X394987Y81274D01*
X392937Y86222D01*
X392937Y91578D01*
X394987Y96526D01*
X398774Y100313D01*
X400183Y100897D01*
X400244Y100934D01*
X400309Y100964D01*
X400348Y100999D01*
X400392Y101026D01*
X400438Y101082D01*
X400490Y101130D01*
X400515Y101176D01*
X400549Y101216D01*
X400574Y101283D01*
X400609Y101346D01*
X400618Y101397D01*
X400637Y101445D01*
X400640Y101517D01*
X400653Y101588D01*
X400645Y101639D01*
X400647Y101691D01*
X400627Y101760D01*
X400617Y101831D01*
X400593Y101877D01*
X400579Y101927D01*
X400538Y101986D01*
X400505Y102050D01*
X400468Y102087D01*
X400438Y102129D01*
X400381Y102172D01*
X400330Y102222D01*
X400267Y102257D01*
X400241Y102276D01*
X400219Y102283D01*
X400183Y102303D01*
X398774Y102887D01*
X394987Y106674D01*
X392937Y111622D01*
X392937Y116978D01*
X394987Y121926D01*
X398774Y125713D01*
X403722Y127763D01*
X409078Y127763D01*
X414026Y125713D01*
X417813Y121926D01*
X419863Y116978D01*
X419863Y111622D01*
X417813Y106674D01*
X414026Y102887D01*
X412617Y102303D01*
X412556Y102265D01*
X412491Y102236D01*
X412452Y102201D01*
X412408Y102174D01*
X412362Y102118D01*
X412310Y102070D01*
X412285Y102024D01*
X412251Y101984D01*
X412226Y101917D01*
X412191Y101854D01*
X412182Y101803D01*
X412163Y101755D01*
X412160Y101683D01*
X412147Y101612D01*
X412155Y101561D01*
X412153Y101509D01*
X412173Y101440D01*
X412183Y101369D01*
X412207Y101323D01*
X412221Y101273D01*
X412262Y101214D01*
X412295Y101150D01*
X412332Y101113D01*
X412362Y101071D01*
X412419Y101028D01*
X412470Y100978D01*
X412533Y100943D01*
X412559Y100924D01*
X412581Y100917D01*
X412617Y100897D01*
X414026Y100313D01*
X417813Y96526D01*
X419863Y91578D01*
X419863Y86222D01*
X417813Y81274D01*
X414026Y77487D01*
X409078Y75437D01*
X403722Y75437D01*
G37*
%LPD*%
%LPC*%
G36*
X185870Y103123D02*
X185870Y103123D01*
X179323Y109670D01*
X179323Y118930D01*
X185870Y125477D01*
X195130Y125477D01*
X199106Y121501D01*
X199122Y121489D01*
X199134Y121473D01*
X199208Y121426D01*
X199229Y121408D01*
X199242Y121403D01*
X199305Y121357D01*
X199324Y121351D01*
X199341Y121340D01*
X199442Y121315D01*
X199541Y121285D01*
X199560Y121285D01*
X199580Y121280D01*
X199683Y121288D01*
X199786Y121291D01*
X199805Y121298D01*
X199825Y121299D01*
X199920Y121340D01*
X200017Y121375D01*
X200033Y121388D01*
X200051Y121396D01*
X200118Y121449D01*
X200124Y121452D01*
X200130Y121459D01*
X200182Y121501D01*
X202457Y123775D01*
X206565Y125477D01*
X225235Y125477D01*
X229343Y123775D01*
X232487Y120631D01*
X234189Y116523D01*
X234189Y112077D01*
X232487Y107969D01*
X229343Y104825D01*
X225235Y103123D01*
X206565Y103123D01*
X202457Y104825D01*
X200182Y107099D01*
X200166Y107111D01*
X200154Y107127D01*
X200066Y107183D01*
X199983Y107243D01*
X199964Y107249D01*
X199947Y107260D01*
X199846Y107285D01*
X199747Y107315D01*
X199728Y107315D01*
X199708Y107320D01*
X199605Y107312D01*
X199502Y107309D01*
X199483Y107302D01*
X199463Y107301D01*
X199368Y107260D01*
X199271Y107225D01*
X199255Y107212D01*
X199237Y107204D01*
X199106Y107099D01*
X195130Y103123D01*
X185870Y103123D01*
G37*
%LPD*%
%LPC*%
G36*
X376370Y416813D02*
X376370Y416813D01*
X369823Y423360D01*
X369823Y432620D01*
X374680Y437477D01*
X374728Y437543D01*
X374734Y437549D01*
X374736Y437553D01*
X374793Y437620D01*
X374805Y437650D01*
X374824Y437676D01*
X374851Y437763D01*
X374885Y437848D01*
X374889Y437889D01*
X374896Y437911D01*
X374895Y437944D01*
X374903Y438015D01*
X374903Y445713D01*
X375831Y447954D01*
X382300Y454422D01*
X382353Y454496D01*
X382413Y454566D01*
X382425Y454596D01*
X382444Y454622D01*
X382471Y454709D01*
X382505Y454794D01*
X382509Y454835D01*
X382516Y454857D01*
X382515Y454889D01*
X382523Y454961D01*
X382523Y461830D01*
X389070Y468377D01*
X398330Y468377D01*
X404877Y461830D01*
X404877Y452570D01*
X398330Y446023D01*
X391461Y446023D01*
X391371Y446009D01*
X391280Y446001D01*
X391250Y445989D01*
X391218Y445984D01*
X391137Y445941D01*
X391053Y445905D01*
X391021Y445879D01*
X391001Y445868D01*
X390978Y445845D01*
X390922Y445800D01*
X387320Y442198D01*
X387267Y442124D01*
X387207Y442054D01*
X387195Y442024D01*
X387176Y441998D01*
X387149Y441911D01*
X387115Y441826D01*
X387111Y441785D01*
X387104Y441763D01*
X387105Y441731D01*
X387097Y441659D01*
X387097Y438015D01*
X387111Y437925D01*
X387119Y437834D01*
X387131Y437804D01*
X387136Y437772D01*
X387179Y437691D01*
X387215Y437608D01*
X387241Y437575D01*
X387252Y437555D01*
X387275Y437533D01*
X387320Y437477D01*
X392177Y432620D01*
X392177Y423360D01*
X385630Y416813D01*
X376370Y416813D01*
G37*
%LPD*%
%LPC*%
G36*
X148589Y22859D02*
X148589Y22859D01*
X148589Y23622D01*
X148586Y23642D01*
X148588Y23661D01*
X148566Y23763D01*
X148549Y23865D01*
X148540Y23882D01*
X148536Y23902D01*
X148483Y23991D01*
X148434Y24082D01*
X148420Y24096D01*
X148410Y24113D01*
X148331Y24180D01*
X148256Y24251D01*
X148238Y24260D01*
X148223Y24273D01*
X148127Y24312D01*
X148033Y24355D01*
X148013Y24357D01*
X147995Y24365D01*
X147828Y24383D01*
X136744Y24383D01*
X136945Y25656D01*
X137526Y27443D01*
X138379Y29117D01*
X139484Y30638D01*
X140812Y31966D01*
X142333Y33071D01*
X144007Y33924D01*
X144294Y34017D01*
X144384Y34064D01*
X144476Y34105D01*
X144492Y34120D01*
X144512Y34130D01*
X144583Y34203D01*
X144657Y34271D01*
X144668Y34291D01*
X144683Y34307D01*
X144727Y34398D01*
X144776Y34487D01*
X144780Y34509D01*
X144789Y34529D01*
X144802Y34629D01*
X144820Y34729D01*
X144816Y34751D01*
X144819Y34773D01*
X144799Y34872D01*
X144784Y34972D01*
X144774Y34992D01*
X144769Y35014D01*
X144718Y35101D01*
X144672Y35191D01*
X144656Y35207D01*
X144645Y35226D01*
X144569Y35293D01*
X144497Y35364D01*
X144473Y35377D01*
X144460Y35388D01*
X144430Y35400D01*
X144350Y35444D01*
X140964Y36847D01*
X137177Y40634D01*
X135127Y45582D01*
X135127Y50938D01*
X137177Y55886D01*
X140964Y59673D01*
X145912Y61723D01*
X151268Y61723D01*
X156216Y59673D01*
X160003Y55886D01*
X162053Y50938D01*
X162053Y45582D01*
X160003Y40634D01*
X156216Y36847D01*
X152830Y35444D01*
X152744Y35391D01*
X152655Y35343D01*
X152640Y35326D01*
X152621Y35315D01*
X152557Y35237D01*
X152488Y35163D01*
X152479Y35142D01*
X152464Y35125D01*
X152428Y35031D01*
X152386Y34938D01*
X152384Y34916D01*
X152376Y34896D01*
X152372Y34795D01*
X152362Y34694D01*
X152367Y34672D01*
X152366Y34650D01*
X152394Y34553D01*
X152417Y34454D01*
X152428Y34435D01*
X152434Y34414D01*
X152492Y34331D01*
X152545Y34244D01*
X152562Y34230D01*
X152575Y34212D01*
X152656Y34151D01*
X152734Y34086D01*
X152758Y34075D01*
X152772Y34065D01*
X152803Y34055D01*
X152886Y34017D01*
X153173Y33924D01*
X154847Y33071D01*
X156368Y31966D01*
X157696Y30638D01*
X158801Y29117D01*
X159654Y27443D01*
X160235Y25656D01*
X160436Y24383D01*
X149352Y24383D01*
X149332Y24380D01*
X149313Y24382D01*
X149211Y24360D01*
X149109Y24343D01*
X149092Y24334D01*
X149072Y24330D01*
X148983Y24277D01*
X148892Y24228D01*
X148878Y24214D01*
X148861Y24204D01*
X148794Y24125D01*
X148723Y24050D01*
X148714Y24032D01*
X148701Y24017D01*
X148663Y23921D01*
X148619Y23827D01*
X148617Y23807D01*
X148609Y23789D01*
X148591Y23622D01*
X148591Y22859D01*
X148589Y22859D01*
G37*
%LPD*%
%LPC*%
G36*
X282765Y280923D02*
X282765Y280923D01*
X278657Y282625D01*
X275513Y285769D01*
X273811Y289877D01*
X273811Y294323D01*
X275513Y298431D01*
X278657Y301575D01*
X282765Y303277D01*
X301435Y303277D01*
X305543Y301575D01*
X308687Y298431D01*
X310389Y294323D01*
X310389Y289877D01*
X308687Y285769D01*
X305543Y282625D01*
X301435Y280923D01*
X282765Y280923D01*
G37*
%LPD*%
%LPC*%
G36*
X206565Y280923D02*
X206565Y280923D01*
X202457Y282625D01*
X199313Y285769D01*
X197611Y289877D01*
X197611Y294323D01*
X199313Y298431D01*
X202457Y301575D01*
X206565Y303277D01*
X225235Y303277D01*
X229343Y301575D01*
X232487Y298431D01*
X234189Y294323D01*
X234189Y289877D01*
X232487Y285769D01*
X229343Y282625D01*
X225235Y280923D01*
X206565Y280923D01*
G37*
%LPD*%
%LPC*%
G36*
X282765Y255523D02*
X282765Y255523D01*
X278657Y257225D01*
X275513Y260369D01*
X273811Y264477D01*
X273811Y268923D01*
X275513Y273031D01*
X278657Y276175D01*
X282765Y277877D01*
X301435Y277877D01*
X305543Y276175D01*
X308687Y273031D01*
X310389Y268923D01*
X310389Y264477D01*
X308687Y260369D01*
X305543Y257225D01*
X301435Y255523D01*
X282765Y255523D01*
G37*
%LPD*%
%LPC*%
G36*
X282765Y331723D02*
X282765Y331723D01*
X278657Y333425D01*
X275513Y336569D01*
X273811Y340677D01*
X273811Y345123D01*
X275513Y349231D01*
X278657Y352375D01*
X282765Y354077D01*
X301435Y354077D01*
X305543Y352375D01*
X308687Y349231D01*
X310389Y345123D01*
X310389Y340677D01*
X308687Y336569D01*
X305543Y333425D01*
X301435Y331723D01*
X282765Y331723D01*
G37*
%LPD*%
%LPC*%
G36*
X282765Y230123D02*
X282765Y230123D01*
X278657Y231825D01*
X275513Y234969D01*
X273811Y239077D01*
X273811Y243523D01*
X275513Y247631D01*
X278657Y250775D01*
X282765Y252477D01*
X301435Y252477D01*
X305543Y250775D01*
X308687Y247631D01*
X310389Y243523D01*
X310389Y239077D01*
X308687Y234969D01*
X305543Y231825D01*
X301435Y230123D01*
X282765Y230123D01*
G37*
%LPD*%
%LPC*%
G36*
X206565Y77723D02*
X206565Y77723D01*
X202457Y79425D01*
X199313Y82569D01*
X197611Y86677D01*
X197611Y91123D01*
X199313Y95231D01*
X202457Y98375D01*
X206565Y100077D01*
X225235Y100077D01*
X229343Y98375D01*
X232487Y95231D01*
X234189Y91123D01*
X234189Y86677D01*
X232487Y82569D01*
X229343Y79425D01*
X225235Y77723D01*
X206565Y77723D01*
G37*
%LPD*%
%LPC*%
G36*
X206565Y128523D02*
X206565Y128523D01*
X202457Y130225D01*
X199313Y133369D01*
X197611Y137477D01*
X197611Y141923D01*
X199313Y146031D01*
X202457Y149175D01*
X206565Y150877D01*
X225235Y150877D01*
X229343Y149175D01*
X232487Y146031D01*
X234189Y141923D01*
X234189Y137477D01*
X232487Y133369D01*
X229343Y130225D01*
X225235Y128523D01*
X206565Y128523D01*
G37*
%LPD*%
%LPC*%
G36*
X206565Y153923D02*
X206565Y153923D01*
X202457Y155625D01*
X199313Y158769D01*
X197611Y162877D01*
X197611Y167323D01*
X199313Y171431D01*
X202457Y174575D01*
X206565Y176277D01*
X225235Y176277D01*
X229343Y174575D01*
X232487Y171431D01*
X234189Y167323D01*
X234189Y162877D01*
X232487Y158769D01*
X229343Y155625D01*
X225235Y153923D01*
X206565Y153923D01*
G37*
%LPD*%
%LPC*%
G36*
X206565Y179323D02*
X206565Y179323D01*
X202457Y181025D01*
X199313Y184169D01*
X197611Y188277D01*
X197611Y192723D01*
X199313Y196831D01*
X202457Y199975D01*
X206565Y201677D01*
X225235Y201677D01*
X229343Y199975D01*
X232487Y196831D01*
X234189Y192723D01*
X234189Y188277D01*
X232487Y184169D01*
X229343Y181025D01*
X225235Y179323D01*
X206565Y179323D01*
G37*
%LPD*%
%LPC*%
G36*
X282765Y306323D02*
X282765Y306323D01*
X278657Y308025D01*
X275513Y311169D01*
X273811Y315277D01*
X273811Y319723D01*
X275513Y323831D01*
X278657Y326975D01*
X282765Y328677D01*
X301435Y328677D01*
X305543Y326975D01*
X308687Y323831D01*
X310389Y319723D01*
X310389Y315277D01*
X308687Y311169D01*
X305543Y308025D01*
X301435Y306323D01*
X282765Y306323D01*
G37*
%LPD*%
%LPC*%
G36*
X206565Y204723D02*
X206565Y204723D01*
X202457Y206425D01*
X199313Y209569D01*
X197611Y213677D01*
X197611Y218123D01*
X199313Y222231D01*
X202457Y225375D01*
X206565Y227077D01*
X225235Y227077D01*
X229343Y225375D01*
X232487Y222231D01*
X234189Y218123D01*
X234189Y213677D01*
X232487Y209569D01*
X229343Y206425D01*
X225235Y204723D01*
X206565Y204723D01*
G37*
%LPD*%
%LPC*%
G36*
X68442Y457707D02*
X68442Y457707D01*
X63494Y459757D01*
X59707Y463544D01*
X57657Y468492D01*
X57657Y473848D01*
X59707Y478796D01*
X63494Y482583D01*
X68442Y484633D01*
X73798Y484633D01*
X78746Y482583D01*
X82533Y478796D01*
X84583Y473848D01*
X84583Y468492D01*
X82533Y463544D01*
X78746Y459757D01*
X73798Y457707D01*
X68442Y457707D01*
G37*
%LPD*%
%LPC*%
G36*
X426582Y457707D02*
X426582Y457707D01*
X421634Y459757D01*
X417847Y463544D01*
X415797Y468492D01*
X415797Y473848D01*
X417847Y478796D01*
X421634Y482583D01*
X426582Y484633D01*
X431938Y484633D01*
X436886Y482583D01*
X440673Y478796D01*
X442723Y473848D01*
X442723Y468492D01*
X440673Y463544D01*
X436886Y459757D01*
X431938Y457707D01*
X426582Y457707D01*
G37*
%LPD*%
%LPC*%
G36*
X256370Y6177D02*
X256370Y6177D01*
X252102Y7945D01*
X248835Y11212D01*
X247067Y15480D01*
X247067Y20100D01*
X248835Y24368D01*
X252102Y27635D01*
X256370Y29403D01*
X260990Y29403D01*
X265258Y27635D01*
X268525Y24368D01*
X270293Y20100D01*
X270293Y15480D01*
X268525Y11212D01*
X265258Y7945D01*
X260990Y6177D01*
X256370Y6177D01*
G37*
%LPD*%
%LPC*%
G36*
X231370Y6177D02*
X231370Y6177D01*
X227102Y7945D01*
X223835Y11212D01*
X222067Y15480D01*
X222067Y20100D01*
X223835Y24368D01*
X227102Y27635D01*
X231370Y29403D01*
X235990Y29403D01*
X240258Y27635D01*
X243525Y24368D01*
X245293Y20100D01*
X245293Y15480D01*
X243525Y11212D01*
X240258Y7945D01*
X235990Y6177D01*
X231370Y6177D01*
G37*
%LPD*%
%LPC*%
G36*
X206370Y39177D02*
X206370Y39177D01*
X202102Y40945D01*
X198835Y44212D01*
X197067Y48480D01*
X197067Y53100D01*
X198835Y57368D01*
X202102Y60635D01*
X206370Y62403D01*
X210990Y62403D01*
X215258Y60635D01*
X218525Y57368D01*
X220293Y53100D01*
X220293Y48480D01*
X218525Y44212D01*
X215258Y40945D01*
X210990Y39177D01*
X206370Y39177D01*
G37*
%LPD*%
%LPC*%
G36*
X206370Y6177D02*
X206370Y6177D01*
X202102Y7945D01*
X198835Y11212D01*
X197067Y15480D01*
X197067Y20100D01*
X198835Y24368D01*
X202102Y27635D01*
X206370Y29403D01*
X210990Y29403D01*
X215258Y27635D01*
X218525Y24368D01*
X220293Y20100D01*
X220293Y15480D01*
X218525Y11212D01*
X215258Y7945D01*
X210990Y6177D01*
X206370Y6177D01*
G37*
%LPD*%
%LPC*%
G36*
X231370Y39177D02*
X231370Y39177D01*
X227102Y40945D01*
X223835Y44212D01*
X222067Y48480D01*
X222067Y53100D01*
X223835Y57368D01*
X227102Y60635D01*
X231370Y62403D01*
X235990Y62403D01*
X240258Y60635D01*
X243525Y57368D01*
X245293Y53100D01*
X245293Y48480D01*
X243525Y44212D01*
X240258Y40945D01*
X235990Y39177D01*
X231370Y39177D01*
G37*
%LPD*%
%LPC*%
G36*
X256370Y39177D02*
X256370Y39177D01*
X252102Y40945D01*
X248835Y44212D01*
X247067Y48480D01*
X247067Y53100D01*
X248835Y57368D01*
X252102Y60635D01*
X256370Y62403D01*
X260990Y62403D01*
X265258Y60635D01*
X268525Y57368D01*
X270293Y53100D01*
X270293Y48480D01*
X268525Y44212D01*
X265258Y40945D01*
X260990Y39177D01*
X256370Y39177D01*
G37*
%LPD*%
%LPC*%
G36*
X99510Y471423D02*
X99510Y471423D01*
X92963Y477970D01*
X92963Y487230D01*
X99510Y493777D01*
X108770Y493777D01*
X115317Y487230D01*
X115317Y477970D01*
X108770Y471423D01*
X99510Y471423D01*
G37*
%LPD*%
%LPC*%
G36*
X98240Y416813D02*
X98240Y416813D01*
X91693Y423360D01*
X91693Y432620D01*
X98240Y439167D01*
X107500Y439167D01*
X114047Y432620D01*
X114047Y423360D01*
X107500Y416813D01*
X98240Y416813D01*
G37*
%LPD*%
%LPC*%
G36*
X99510Y446023D02*
X99510Y446023D01*
X92963Y452570D01*
X92963Y461830D01*
X99510Y468377D01*
X108770Y468377D01*
X115317Y461830D01*
X115317Y452570D01*
X108770Y446023D01*
X99510Y446023D01*
G37*
%LPD*%
%LPC*%
G36*
X401770Y416813D02*
X401770Y416813D01*
X395223Y423360D01*
X395223Y432620D01*
X401770Y439167D01*
X411030Y439167D01*
X417577Y432620D01*
X417577Y423360D01*
X411030Y416813D01*
X401770Y416813D01*
G37*
%LPD*%
%LPC*%
G36*
X293623Y395223D02*
X293623Y395223D01*
X293623Y403353D01*
X299972Y403353D01*
X301472Y403115D01*
X302917Y402646D01*
X304271Y401956D01*
X305500Y401063D01*
X306575Y399988D01*
X307468Y398759D01*
X308158Y397405D01*
X308627Y395960D01*
X308744Y395223D01*
X293623Y395223D01*
G37*
%LPD*%
%LPC*%
G36*
X217423Y242823D02*
X217423Y242823D01*
X217423Y250953D01*
X223772Y250953D01*
X225272Y250715D01*
X226717Y250246D01*
X228071Y249556D01*
X229300Y248663D01*
X230375Y247588D01*
X231268Y246359D01*
X231958Y245005D01*
X232427Y243560D01*
X232544Y242823D01*
X217423Y242823D01*
G37*
%LPD*%
%LPC*%
G36*
X293623Y192023D02*
X293623Y192023D01*
X293623Y200153D01*
X299972Y200153D01*
X301472Y199915D01*
X302917Y199446D01*
X304271Y198756D01*
X305500Y197863D01*
X306575Y196788D01*
X307468Y195559D01*
X308158Y194205D01*
X308627Y192760D01*
X308744Y192023D01*
X293623Y192023D01*
G37*
%LPD*%
%LPC*%
G36*
X199256Y242823D02*
X199256Y242823D01*
X199373Y243560D01*
X199842Y245005D01*
X200532Y246359D01*
X201425Y247588D01*
X202500Y248663D01*
X203729Y249556D01*
X205083Y250246D01*
X206528Y250715D01*
X208028Y250953D01*
X214377Y250953D01*
X214377Y242823D01*
X199256Y242823D01*
G37*
%LPD*%
%LPC*%
G36*
X275456Y192023D02*
X275456Y192023D01*
X275573Y192760D01*
X276042Y194205D01*
X276732Y195559D01*
X277625Y196788D01*
X278700Y197863D01*
X279929Y198756D01*
X281283Y199446D01*
X282728Y199915D01*
X284228Y200153D01*
X290577Y200153D01*
X290577Y192023D01*
X275456Y192023D01*
G37*
%LPD*%
%LPC*%
G36*
X275456Y395223D02*
X275456Y395223D01*
X275573Y395960D01*
X276042Y397405D01*
X276732Y398759D01*
X277625Y399988D01*
X278700Y401063D01*
X279929Y401956D01*
X281283Y402646D01*
X282728Y403115D01*
X284228Y403353D01*
X290577Y403353D01*
X290577Y395223D01*
X275456Y395223D01*
G37*
%LPD*%
%LPC*%
G36*
X293623Y180847D02*
X293623Y180847D01*
X293623Y188977D01*
X308744Y188977D01*
X308627Y188240D01*
X308158Y186795D01*
X307468Y185441D01*
X306575Y184212D01*
X305500Y183137D01*
X304271Y182244D01*
X302917Y181554D01*
X301472Y181085D01*
X299972Y180847D01*
X293623Y180847D01*
G37*
%LPD*%
%LPC*%
G36*
X293623Y384047D02*
X293623Y384047D01*
X293623Y392177D01*
X308744Y392177D01*
X308627Y391440D01*
X308158Y389995D01*
X307468Y388641D01*
X306575Y387412D01*
X305500Y386337D01*
X304271Y385444D01*
X302917Y384754D01*
X301472Y384285D01*
X299972Y384047D01*
X293623Y384047D01*
G37*
%LPD*%
%LPC*%
G36*
X217423Y231647D02*
X217423Y231647D01*
X217423Y239777D01*
X232544Y239777D01*
X232427Y239040D01*
X231958Y237595D01*
X231268Y236241D01*
X230375Y235012D01*
X229300Y233937D01*
X228071Y233044D01*
X226717Y232354D01*
X225272Y231885D01*
X223772Y231647D01*
X217423Y231647D01*
G37*
%LPD*%
%LPC*%
G36*
X284228Y180847D02*
X284228Y180847D01*
X282728Y181085D01*
X281283Y181554D01*
X279929Y182244D01*
X278700Y183137D01*
X277625Y184212D01*
X276732Y185441D01*
X276042Y186795D01*
X275573Y188240D01*
X275456Y188977D01*
X290577Y188977D01*
X290577Y180847D01*
X284228Y180847D01*
G37*
%LPD*%
%LPC*%
G36*
X208028Y231647D02*
X208028Y231647D01*
X206528Y231885D01*
X205083Y232354D01*
X203729Y233044D01*
X202500Y233937D01*
X201425Y235012D01*
X200532Y236241D01*
X199842Y237595D01*
X199373Y239040D01*
X199256Y239777D01*
X214377Y239777D01*
X214377Y231647D01*
X208028Y231647D01*
G37*
%LPD*%
%LPC*%
G36*
X284228Y384047D02*
X284228Y384047D01*
X282728Y384285D01*
X281283Y384754D01*
X279929Y385444D01*
X278700Y386337D01*
X277625Y387412D01*
X276732Y388641D01*
X276042Y389995D01*
X275573Y391440D01*
X275456Y392177D01*
X290577Y392177D01*
X290577Y384047D01*
X284228Y384047D01*
G37*
%LPD*%
%LPC*%
G36*
X481583Y472693D02*
X481583Y472693D01*
X481583Y483016D01*
X482856Y482815D01*
X484643Y482234D01*
X486317Y481381D01*
X487838Y480276D01*
X489166Y478948D01*
X490271Y477427D01*
X491124Y475753D01*
X491705Y473966D01*
X491906Y472693D01*
X481583Y472693D01*
G37*
%LPD*%
%LPC*%
G36*
X21843Y472693D02*
X21843Y472693D01*
X21843Y483016D01*
X23116Y482815D01*
X24903Y482234D01*
X26577Y481381D01*
X28098Y480276D01*
X29426Y478948D01*
X30531Y477427D01*
X31384Y475753D01*
X31965Y473966D01*
X32166Y472693D01*
X21843Y472693D01*
G37*
%LPD*%
%LPC*%
G36*
X26923Y141223D02*
X26923Y141223D01*
X26923Y151546D01*
X28196Y151345D01*
X29983Y150764D01*
X31657Y149911D01*
X33178Y148806D01*
X34506Y147478D01*
X35611Y145957D01*
X36464Y144283D01*
X37045Y142496D01*
X37246Y141223D01*
X26923Y141223D01*
G37*
%LPD*%
%LPC*%
G36*
X420623Y21843D02*
X420623Y21843D01*
X420623Y32166D01*
X421896Y31965D01*
X423683Y31384D01*
X425357Y30531D01*
X426878Y29426D01*
X428206Y28098D01*
X429311Y26577D01*
X430164Y24903D01*
X430745Y23116D01*
X430946Y21843D01*
X420623Y21843D01*
G37*
%LPD*%
%LPC*%
G36*
X8474Y472693D02*
X8474Y472693D01*
X8675Y473966D01*
X9256Y475753D01*
X10109Y477427D01*
X11214Y478948D01*
X12542Y480276D01*
X14063Y481381D01*
X15737Y482234D01*
X17524Y482815D01*
X18797Y483016D01*
X18797Y472693D01*
X8474Y472693D01*
G37*
%LPD*%
%LPC*%
G36*
X468214Y472693D02*
X468214Y472693D01*
X468415Y473966D01*
X468996Y475753D01*
X469849Y477427D01*
X470954Y478948D01*
X472282Y480276D01*
X473803Y481381D01*
X475477Y482234D01*
X477264Y482815D01*
X478537Y483016D01*
X478537Y472693D01*
X468214Y472693D01*
G37*
%LPD*%
%LPC*%
G36*
X420623Y18797D02*
X420623Y18797D01*
X430946Y18797D01*
X430745Y17524D01*
X430164Y15737D01*
X429311Y14063D01*
X428206Y12542D01*
X426878Y11214D01*
X425357Y10109D01*
X423683Y9256D01*
X421896Y8675D01*
X420623Y8474D01*
X420623Y18797D01*
G37*
%LPD*%
%LPC*%
G36*
X26923Y138177D02*
X26923Y138177D01*
X37246Y138177D01*
X37045Y136904D01*
X36464Y135117D01*
X35611Y133443D01*
X34506Y131922D01*
X33178Y130594D01*
X31657Y129489D01*
X29983Y128636D01*
X28196Y128055D01*
X26923Y127854D01*
X26923Y138177D01*
G37*
%LPD*%
%LPC*%
G36*
X26923Y163577D02*
X26923Y163577D01*
X37246Y163577D01*
X37045Y162304D01*
X36464Y160517D01*
X35611Y158843D01*
X34506Y157322D01*
X33178Y155994D01*
X31657Y154889D01*
X29983Y154036D01*
X28196Y153455D01*
X26923Y153254D01*
X26923Y163577D01*
G37*
%LPD*%
%LPC*%
G36*
X13554Y141223D02*
X13554Y141223D01*
X13755Y142496D01*
X14336Y144283D01*
X15189Y145957D01*
X16294Y147478D01*
X17622Y148806D01*
X19143Y149911D01*
X20817Y150764D01*
X22604Y151345D01*
X23877Y151546D01*
X23877Y141223D01*
X13554Y141223D01*
G37*
%LPD*%
%LPC*%
G36*
X447293Y18797D02*
X447293Y18797D01*
X457616Y18797D01*
X457415Y17524D01*
X456834Y15737D01*
X455981Y14063D01*
X454876Y12542D01*
X453548Y11214D01*
X452027Y10109D01*
X450353Y9256D01*
X448566Y8675D01*
X447293Y8474D01*
X447293Y18797D01*
G37*
%LPD*%
%LPC*%
G36*
X150113Y21337D02*
X150113Y21337D01*
X160436Y21337D01*
X160235Y20064D01*
X159654Y18277D01*
X158801Y16603D01*
X157696Y15082D01*
X156368Y13754D01*
X154847Y12649D01*
X153173Y11796D01*
X151386Y11215D01*
X150113Y11014D01*
X150113Y21337D01*
G37*
%LPD*%
%LPC*%
G36*
X26923Y23877D02*
X26923Y23877D01*
X37246Y23877D01*
X37045Y22604D01*
X36464Y20817D01*
X35611Y19143D01*
X34506Y17622D01*
X33178Y16294D01*
X31657Y15189D01*
X29983Y14336D01*
X28196Y13755D01*
X26923Y13554D01*
X26923Y23877D01*
G37*
%LPD*%
%LPC*%
G36*
X21843Y469647D02*
X21843Y469647D01*
X32166Y469647D01*
X31965Y468374D01*
X31384Y466587D01*
X30531Y464913D01*
X29426Y463392D01*
X28098Y462064D01*
X26577Y460959D01*
X24903Y460106D01*
X23116Y459525D01*
X21843Y459324D01*
X21843Y469647D01*
G37*
%LPD*%
%LPC*%
G36*
X471423Y138177D02*
X471423Y138177D01*
X481746Y138177D01*
X481545Y136904D01*
X480964Y135117D01*
X480111Y133443D01*
X479006Y131922D01*
X477678Y130594D01*
X476157Y129489D01*
X474483Y128636D01*
X472696Y128055D01*
X471423Y127854D01*
X471423Y138177D01*
G37*
%LPD*%
%LPC*%
G36*
X481583Y469647D02*
X481583Y469647D01*
X491906Y469647D01*
X491705Y468374D01*
X491124Y466587D01*
X490271Y464913D01*
X489166Y463392D01*
X487838Y462064D01*
X486317Y460959D01*
X484643Y460106D01*
X482856Y459525D01*
X481583Y459324D01*
X481583Y469647D01*
G37*
%LPD*%
%LPC*%
G36*
X477264Y459525D02*
X477264Y459525D01*
X475477Y460106D01*
X473803Y460959D01*
X472282Y462064D01*
X470954Y463392D01*
X469849Y464913D01*
X468996Y466587D01*
X468415Y468374D01*
X468214Y469647D01*
X478537Y469647D01*
X478537Y459324D01*
X477264Y459525D01*
G37*
%LPD*%
%LPC*%
G36*
X22604Y128055D02*
X22604Y128055D01*
X20817Y128636D01*
X19143Y129489D01*
X17622Y130594D01*
X16294Y131922D01*
X15189Y133443D01*
X14336Y135117D01*
X13755Y136904D01*
X13554Y138177D01*
X23877Y138177D01*
X23877Y127854D01*
X22604Y128055D01*
G37*
%LPD*%
%LPC*%
G36*
X17524Y459525D02*
X17524Y459525D01*
X15737Y460106D01*
X14063Y460959D01*
X12542Y462064D01*
X11214Y463392D01*
X10109Y464913D01*
X9256Y466587D01*
X8675Y468374D01*
X8474Y469647D01*
X18797Y469647D01*
X18797Y459324D01*
X17524Y459525D01*
G37*
%LPD*%
%LPC*%
G36*
X467104Y128055D02*
X467104Y128055D01*
X465317Y128636D01*
X463643Y129489D01*
X462122Y130594D01*
X460794Y131922D01*
X459689Y133443D01*
X458836Y135117D01*
X458255Y136904D01*
X458054Y138177D01*
X468377Y138177D01*
X468377Y127854D01*
X467104Y128055D01*
G37*
%LPD*%
%LPC*%
G36*
X22604Y13755D02*
X22604Y13755D01*
X20817Y14336D01*
X19143Y15189D01*
X17622Y16294D01*
X16294Y17622D01*
X15189Y19143D01*
X14336Y20817D01*
X13755Y22604D01*
X13554Y23877D01*
X23877Y23877D01*
X23877Y13554D01*
X22604Y13755D01*
G37*
%LPD*%
%LPC*%
G36*
X145794Y11215D02*
X145794Y11215D01*
X144007Y11796D01*
X142333Y12649D01*
X140812Y13754D01*
X139484Y15082D01*
X138379Y16603D01*
X137526Y18277D01*
X136945Y20064D01*
X136744Y21337D01*
X147067Y21337D01*
X147067Y11014D01*
X145794Y11215D01*
G37*
%LPD*%
%LPC*%
G36*
X442974Y8675D02*
X442974Y8675D01*
X441187Y9256D01*
X439513Y10109D01*
X437992Y11214D01*
X436664Y12542D01*
X435559Y14063D01*
X434706Y15737D01*
X434125Y17524D01*
X433924Y18797D01*
X444247Y18797D01*
X444247Y8474D01*
X442974Y8675D01*
G37*
%LPD*%
%LPC*%
G36*
X22604Y153455D02*
X22604Y153455D01*
X20817Y154036D01*
X19143Y154889D01*
X17622Y155994D01*
X16294Y157322D01*
X15189Y158843D01*
X14336Y160517D01*
X13755Y162304D01*
X13554Y163577D01*
X23877Y163577D01*
X23877Y153254D01*
X22604Y153455D01*
G37*
%LPD*%
%LPC*%
G36*
X344423Y217423D02*
X344423Y217423D01*
X344423Y225553D01*
X346898Y225553D01*
X352553Y219898D01*
X352553Y217423D01*
X344423Y217423D01*
G37*
%LPD*%
%LPC*%
G36*
X382523Y353313D02*
X382523Y353313D01*
X382523Y361443D01*
X384998Y361443D01*
X390653Y355788D01*
X390653Y353313D01*
X382523Y353313D01*
G37*
%LPD*%
%LPC*%
G36*
X166623Y115823D02*
X166623Y115823D01*
X166623Y123953D01*
X169098Y123953D01*
X174753Y118298D01*
X174753Y115823D01*
X166623Y115823D01*
G37*
%LPD*%
%LPC*%
G36*
X331723Y395223D02*
X331723Y395223D01*
X331723Y403353D01*
X334198Y403353D01*
X339853Y397698D01*
X339853Y395223D01*
X331723Y395223D01*
G37*
%LPD*%
%LPC*%
G36*
X131063Y353313D02*
X131063Y353313D01*
X131063Y361443D01*
X133538Y361443D01*
X139193Y355788D01*
X139193Y353313D01*
X131063Y353313D01*
G37*
%LPD*%
%LPC*%
G36*
X333247Y217423D02*
X333247Y217423D01*
X333247Y219898D01*
X338902Y225553D01*
X341377Y225553D01*
X341377Y217423D01*
X333247Y217423D01*
G37*
%LPD*%
%LPC*%
G36*
X155447Y115823D02*
X155447Y115823D01*
X155447Y118298D01*
X161102Y123953D01*
X163577Y123953D01*
X163577Y115823D01*
X155447Y115823D01*
G37*
%LPD*%
%LPC*%
G36*
X320547Y395223D02*
X320547Y395223D01*
X320547Y397698D01*
X326202Y403353D01*
X328677Y403353D01*
X328677Y395223D01*
X320547Y395223D01*
G37*
%LPD*%
%LPC*%
G36*
X371347Y353313D02*
X371347Y353313D01*
X371347Y355788D01*
X377002Y361443D01*
X379477Y361443D01*
X379477Y353313D01*
X371347Y353313D01*
G37*
%LPD*%
%LPC*%
G36*
X119887Y353313D02*
X119887Y353313D01*
X119887Y355788D01*
X125542Y361443D01*
X128017Y361443D01*
X128017Y353313D01*
X119887Y353313D01*
G37*
%LPD*%
%LPC*%
G36*
X131063Y342137D02*
X131063Y342137D01*
X131063Y350267D01*
X139193Y350267D01*
X139193Y347792D01*
X133538Y342137D01*
X131063Y342137D01*
G37*
%LPD*%
%LPC*%
G36*
X166623Y104647D02*
X166623Y104647D01*
X166623Y112777D01*
X174753Y112777D01*
X174753Y110302D01*
X169098Y104647D01*
X166623Y104647D01*
G37*
%LPD*%
%LPC*%
G36*
X331723Y384047D02*
X331723Y384047D01*
X331723Y392177D01*
X339853Y392177D01*
X339853Y389702D01*
X334198Y384047D01*
X331723Y384047D01*
G37*
%LPD*%
%LPC*%
G36*
X382523Y342137D02*
X382523Y342137D01*
X382523Y350267D01*
X390653Y350267D01*
X390653Y347792D01*
X384998Y342137D01*
X382523Y342137D01*
G37*
%LPD*%
%LPC*%
G36*
X344423Y206247D02*
X344423Y206247D01*
X344423Y214377D01*
X352553Y214377D01*
X352553Y211902D01*
X346898Y206247D01*
X344423Y206247D01*
G37*
%LPD*%
%LPC*%
G36*
X161102Y104647D02*
X161102Y104647D01*
X155447Y110302D01*
X155447Y112777D01*
X163577Y112777D01*
X163577Y104647D01*
X161102Y104647D01*
G37*
%LPD*%
%LPC*%
G36*
X125542Y342137D02*
X125542Y342137D01*
X119887Y347792D01*
X119887Y350267D01*
X128017Y350267D01*
X128017Y342137D01*
X125542Y342137D01*
G37*
%LPD*%
%LPC*%
G36*
X338902Y206247D02*
X338902Y206247D01*
X333247Y211902D01*
X333247Y214377D01*
X341377Y214377D01*
X341377Y206247D01*
X338902Y206247D01*
G37*
%LPD*%
%LPC*%
G36*
X326202Y384047D02*
X326202Y384047D01*
X320547Y389702D01*
X320547Y392177D01*
X328677Y392177D01*
X328677Y384047D01*
X326202Y384047D01*
G37*
%LPD*%
%LPC*%
G36*
X377002Y342137D02*
X377002Y342137D01*
X371347Y347792D01*
X371347Y350267D01*
X379477Y350267D01*
X379477Y342137D01*
X377002Y342137D01*
G37*
%LPD*%
%LPC*%
G36*
X480059Y471169D02*
X480059Y471169D01*
X480059Y471171D01*
X480061Y471171D01*
X480061Y471169D01*
X480059Y471169D01*
G37*
%LPD*%
%LPC*%
G36*
X20319Y471169D02*
X20319Y471169D01*
X20319Y471171D01*
X20321Y471171D01*
X20321Y471169D01*
X20319Y471169D01*
G37*
%LPD*%
%LPC*%
G36*
X215899Y241299D02*
X215899Y241299D01*
X215899Y241301D01*
X215901Y241301D01*
X215901Y241299D01*
X215899Y241299D01*
G37*
%LPD*%
%LPC*%
G36*
X25399Y139699D02*
X25399Y139699D01*
X25399Y139701D01*
X25401Y139701D01*
X25401Y139699D01*
X25399Y139699D01*
G37*
%LPD*%
%LPC*%
G36*
X165099Y114299D02*
X165099Y114299D01*
X165099Y114301D01*
X165101Y114301D01*
X165101Y114299D01*
X165099Y114299D01*
G37*
%LPD*%
%LPC*%
G36*
X129539Y351789D02*
X129539Y351789D01*
X129539Y351791D01*
X129541Y351791D01*
X129541Y351789D01*
X129539Y351789D01*
G37*
%LPD*%
%LPC*%
G36*
X292099Y190499D02*
X292099Y190499D01*
X292099Y190501D01*
X292101Y190501D01*
X292101Y190499D01*
X292099Y190499D01*
G37*
%LPD*%
%LPC*%
G36*
X380999Y351789D02*
X380999Y351789D01*
X380999Y351791D01*
X381001Y351791D01*
X381001Y351789D01*
X380999Y351789D01*
G37*
%LPD*%
%LPC*%
G36*
X292099Y393699D02*
X292099Y393699D01*
X292099Y393701D01*
X292101Y393701D01*
X292101Y393699D01*
X292099Y393699D01*
G37*
%LPD*%
%LPC*%
G36*
X342899Y215899D02*
X342899Y215899D01*
X342899Y215901D01*
X342901Y215901D01*
X342901Y215899D01*
X342899Y215899D01*
G37*
%LPD*%
%LPC*%
G36*
X330199Y393699D02*
X330199Y393699D01*
X330199Y393701D01*
X330201Y393701D01*
X330201Y393699D01*
X330199Y393699D01*
G37*
%LPD*%
D10*
X330200Y419100D03*
X330200Y393700D03*
D11*
X190500Y114300D03*
X165100Y114300D03*
D12*
X317500Y215900D03*
X342900Y215900D03*
D10*
X393700Y482600D03*
X393700Y457200D03*
X104140Y482600D03*
X104140Y457200D03*
D13*
X381000Y351790D03*
X381000Y427990D03*
X129540Y351790D03*
X129540Y427990D03*
D10*
X406400Y427990D03*
X406400Y351790D03*
X102870Y427990D03*
X102870Y351790D03*
D14*
X208788Y419100D02*
X223012Y419100D01*
X223012Y393700D02*
X208788Y393700D01*
X208788Y368300D02*
X223012Y368300D01*
X223012Y342900D02*
X208788Y342900D01*
X208788Y317500D02*
X223012Y317500D01*
X223012Y292100D02*
X208788Y292100D01*
X208788Y266700D02*
X223012Y266700D01*
X223012Y241300D02*
X208788Y241300D01*
X208788Y215900D02*
X223012Y215900D01*
X223012Y190500D02*
X208788Y190500D01*
X208788Y165100D02*
X223012Y165100D01*
X223012Y139700D02*
X208788Y139700D01*
X208788Y114300D02*
X223012Y114300D01*
X223012Y88900D02*
X208788Y88900D01*
X284988Y88900D02*
X299212Y88900D01*
X299212Y114300D02*
X284988Y114300D01*
X284988Y139700D02*
X299212Y139700D01*
X299212Y165100D02*
X284988Y165100D01*
X284988Y190500D02*
X299212Y190500D01*
X299212Y215900D02*
X284988Y215900D01*
X284988Y241300D02*
X299212Y241300D01*
X299212Y266700D02*
X284988Y266700D01*
X284988Y292100D02*
X299212Y292100D01*
X299212Y317500D02*
X284988Y317500D01*
X284988Y342900D02*
X299212Y342900D01*
X299212Y368300D02*
X284988Y368300D01*
X284988Y393700D02*
X299212Y393700D01*
X299212Y419100D02*
X284988Y419100D01*
D15*
X406400Y114300D03*
X406400Y88900D03*
X469900Y368300D03*
X469900Y342900D03*
X469900Y317500D03*
X469900Y292100D03*
X469900Y266700D03*
X469900Y241300D03*
X469900Y215900D03*
X469900Y190500D03*
X469900Y165100D03*
X469900Y139700D03*
X25400Y241300D03*
X25400Y215900D03*
X25400Y190500D03*
X25400Y165100D03*
X25400Y139700D03*
X25400Y368300D03*
X25400Y342900D03*
X25400Y317500D03*
X25400Y292100D03*
X25400Y266700D03*
X25400Y76200D03*
X25400Y50800D03*
X25400Y25400D03*
X148590Y22860D03*
X148590Y48260D03*
D16*
X208680Y50790D03*
X233680Y50790D03*
X258680Y50790D03*
X258680Y17790D03*
X233680Y17790D03*
X208680Y17790D03*
D15*
X118110Y22860D03*
X118110Y48260D03*
X118110Y73660D03*
X118110Y99060D03*
X419100Y20320D03*
X393700Y20320D03*
X368300Y20320D03*
X342900Y20320D03*
X317500Y20320D03*
X292100Y20320D03*
X204470Y473710D03*
X229870Y473710D03*
X255270Y473710D03*
X280670Y473710D03*
X306070Y473710D03*
X445770Y20320D03*
X445770Y45720D03*
X445770Y71120D03*
X445770Y96520D03*
X429260Y471170D03*
X480060Y471170D03*
X71120Y471170D03*
X20320Y471170D03*
D17*
X292100Y419100D02*
X330200Y419100D01*
X368300Y482600D02*
X393700Y482600D01*
X368300Y482600D02*
X330200Y444500D01*
X330200Y419100D01*
D18*
X76200Y50800D03*
D17*
X76200Y127000D01*
D18*
X76200Y127000D03*
X63500Y190500D03*
D17*
X63500Y312420D01*
X102870Y351790D01*
D18*
X129540Y413738D03*
D17*
X102870Y387068D01*
X102870Y351790D01*
X406400Y351790D02*
X406400Y254000D01*
X431800Y228600D01*
X431800Y190500D01*
X457200Y165100D01*
X469900Y165100D01*
X381000Y444500D02*
X393700Y457200D01*
X381000Y444500D02*
X381000Y427990D01*
X204470Y430530D02*
X204470Y473710D01*
X204470Y430530D02*
X215900Y419100D01*
X280670Y471170D02*
X280670Y473710D01*
X241300Y431800D02*
X241300Y355600D01*
X228600Y342900D01*
X215900Y342900D01*
X241300Y431800D02*
X280670Y471170D01*
X306070Y471170D02*
X306070Y473710D01*
X306070Y471170D02*
X266700Y431800D01*
X266700Y355600D01*
X228600Y317500D01*
X215900Y317500D01*
D18*
X165100Y152400D03*
D17*
X165100Y444500D01*
D18*
X165100Y444500D03*
X184150Y177800D03*
D17*
X184150Y403860D01*
D18*
X184150Y403860D03*
X355600Y165100D03*
D17*
X355600Y114300D01*
D18*
X355600Y114300D03*
X368300Y139700D03*
D17*
X368300Y88900D01*
D18*
X368300Y88900D03*
D17*
X241300Y266700D02*
X215900Y266700D01*
X241300Y266700D02*
X254000Y254000D01*
X254000Y83820D02*
X317500Y20320D01*
X254000Y83820D02*
X254000Y254000D01*
D18*
X266700Y215900D03*
D17*
X266700Y114300D01*
X279400Y101600D01*
X304800Y101600D01*
X317500Y88900D01*
X317500Y45720D02*
X342900Y20320D01*
X317500Y45720D02*
X317500Y88900D01*
D18*
X114300Y190500D03*
D17*
X114300Y279400D01*
D18*
X114300Y279400D03*
X139700Y101600D03*
D17*
X139700Y266700D01*
D18*
X139700Y266700D03*
D17*
X381000Y127000D02*
X393700Y139700D01*
D18*
X381000Y127000D03*
D17*
X393700Y139700D02*
X393700Y215900D01*
D18*
X393700Y215900D03*
X330200Y68580D03*
D19*
X330200Y177800D01*
X342900Y190500D01*
D18*
X342900Y190500D03*
X50800Y215900D03*
D19*
X50800Y152400D01*
D18*
X50800Y152400D03*
M02*
