M48
;GenerationSoftware,Autodesk,EAGLE,9.6.2*%
;CreationDate,2022-04-22T07:13:02Z*%
FMAT,2
ICI,OFF
METRIC,TZ,000.000
T4C0.350
T3C0.813
T2C0.900
T1C1.016
%
G90
M71
T1
X40640Y11430
X2540Y7620
X2540Y26670
X2540Y29210
X2540Y31750
X2540Y34290
X2540Y36830
X2540Y13970
X2540Y16510
X2540Y19050
X2540Y21590
X2540Y24130
X46990Y13970
X46990Y16510
X46990Y19050
X34290Y2032
X46990Y24130
X46990Y26670
X46990Y29210
X46990Y31750
X46990Y34290
X46990Y36830
X40640Y8890
X46990Y21590
X2540Y5080
X2540Y2540
X14859Y2286
X14859Y4826
X11811Y4826
X11811Y2286
X11811Y7366
X11811Y9906
X41910Y2032
X39370Y2032
X36830Y2032
X31750Y2032
X29210Y2032
X20447Y47371
X22987Y47371
X25527Y47371
X28067Y47371
X30607Y47371
X44577Y2032
X44577Y4572
X44577Y7112
X44577Y9652
X42926Y47117
X48006Y47117
X7112Y47117
X2032Y47117
T2
X23368Y1779
X20868Y1779
X23368Y5079
X20868Y5079
X25868Y5079
X25868Y1779
T3
X29210Y11430
X29210Y13970
X29210Y16510
X29210Y19050
X29210Y21590
X29210Y24130
X21590Y26670
X29210Y29210
X29210Y31750
X29210Y34290
X29210Y36830
X29210Y39370
X29210Y41910
X29210Y26670
X39370Y45720
X33020Y41910
X33020Y39370
X19050Y11430
X16510Y11430
X31750Y21590
X34290Y21590
X39370Y48260
X10414Y48260
X10414Y45720
X38100Y35179
X38100Y42799
X12954Y35179
X12954Y42799
X40640Y42799
X40640Y35179
X10287Y42799
X10287Y35179
X21590Y41910
X21590Y39370
X21590Y36830
X21590Y34290
X21590Y31750
X21590Y29210
X21590Y24130
X21590Y21590
X21590Y19050
X21590Y16510
X21590Y13970
X21590Y11430
X21590Y8890
X29210Y8890
T4
X26670Y21590
X36830Y8890
X36830Y13970
X35560Y11430
X35560Y16510
X18415Y40386
X18415Y17780
X7620Y5080
X16510Y44450
X16510Y15240
X12954Y41374
X6350Y19050
X7620Y12700
X5080Y15240
X5080Y21590
X34290Y19050
X33020Y6858
X39370Y21590
X38100Y12700
X13970Y26670
X13970Y10160
X11430Y27940
X11430Y19050
M30